<svg width="121" height="120" viewBox="0 0 121 120" fill="none" xmlns="http://www.w3.org/2000/svg">
<mask id="mask0_14_1867" style="mask-type:alpha" maskUnits="userSpaceOnUse" x="21" y="19" width="70" height="71">
<path d="M56.1189 19.2856C56.6891 19.2856 57.4019 19.563 57.9721 19.7016L84.7735 30.794C87.9098 32.1806 90.3333 35.0924 90.3333 38.6974C90.1907 52.563 84.3458 77.6596 59.8254 89.168C57.4019 90.2772 54.6933 90.2772 52.2697 89.168C27.7494 77.6596 21.9044 52.563 21.7619 38.6974C21.7619 35.0924 24.1854 32.1806 27.3217 30.794L54.123 19.7016C54.6933 19.563 55.4061 19.2856 56.1189 19.2856Z" fill="white" fill-opacity="0.01"/>
</mask>
<g mask="url(#mask0_14_1867)">
<rect x="6.76187" y="8.57153" width="102.857" height="102.857" fill="#6F5BFF"/>
<path d="M56.1189 19.2856C56.6891 19.2856 57.4019 19.563 57.9721 19.7016L84.7735 30.794C87.9098 32.1806 90.3333 35.0924 90.3333 38.6974C90.1907 52.563 84.3458 77.6596 59.8254 89.168C57.4019 90.2772 54.6933 90.2772 52.2697 89.168C27.7494 77.6596 21.9044 52.563 21.7619 38.6974C21.7619 35.0924 24.1854 32.1806 27.3217 30.794L54.123 19.7016C54.6933 19.563 55.4061 19.2856 56.1189 19.2856Z" stroke="url(#paint0_linear_14_1867)" stroke-width="2.14286"/>
</g>
<path d="M83.965 82.9856C84.7267 82.9856 85.3713 83.6301 85.3713 84.3918C85.3713 90.2512 84.4338 94.7629 83.6134 97.5754C83.4377 98.22 82.9103 98.5715 82.2658 98.5715C81.0353 98.5715 80.7424 97.3997 80.9767 96.7551C82.09 92.6536 82.6759 88.6106 82.6174 84.3918C82.6174 83.6301 83.1447 82.9856 83.965 82.9856ZM83.9064 78.2395C87.2463 78.2981 90.0002 80.9934 90.0588 84.2747C90.0588 87.2043 89.883 90.2512 89.3556 93.1809C89.3556 93.4153 88.9455 94.5286 87.7736 94.2942C87.0119 94.177 86.4845 93.4153 86.6017 92.7122C87.0705 89.9583 87.2463 87.0286 87.2463 84.2747C87.1877 82.5168 85.6642 81.052 83.8478 81.052C81.797 81.052 80.6252 82.5754 80.6838 84.1575C80.6838 87.1458 80.4494 90.134 79.8049 93.0637C79.6291 93.8254 78.8674 94.2942 78.1642 94.177C77.4025 94.0012 76.8752 93.1809 77.0509 92.4778C77.6369 89.7825 77.8713 86.97 77.8713 84.1575C77.8127 80.9934 80.2736 78.2395 83.9064 78.2395ZM77.4025 77.0676C77.9884 77.5364 78.1056 78.4153 77.5783 79.0598C76.5236 80.4075 75.9377 82.0481 75.9377 83.8059C75.9377 86.1497 75.7619 88.552 75.3517 90.8958C75.3517 91.1301 74.9416 92.2434 73.7697 92.009C73.008 91.8918 72.4806 91.1301 72.6564 90.3684C73.008 88.259 73.1838 86.0325 73.1838 83.8059C73.1252 81.4622 73.9455 79.1184 75.4103 77.2434C75.9377 76.6575 76.8166 76.5989 77.4025 77.0676ZM83.7892 73.4348C89.7658 73.4934 94.6291 78.2981 94.7463 84.0403C94.7463 86.384 94.6291 88.7278 94.3947 91.0715C94.3361 91.5989 93.8088 92.3606 92.8127 92.302C92.0509 92.1848 91.5236 91.5403 91.5822 90.7786C91.8166 88.4934 91.9338 86.3254 91.9338 84.0989C91.8752 79.8215 88.1838 76.3059 83.7892 76.2473C83.0861 76.1887 82.4416 76.3059 81.7384 76.4231C80.9767 76.5989 80.2736 76.1301 80.0978 75.427C79.922 74.6067 80.3908 73.845 81.1525 73.7278C82.0314 73.4934 82.9103 73.3762 83.7892 73.4348ZM98.6134 80.5247C98.965 82.1653 98.965 83.4543 98.9064 84.7434C98.9064 85.5637 98.2619 86.1497 97.5002 86.1497C96.7384 86.1497 96.0939 85.5051 96.0939 84.7434C96.1525 83.3372 96.0939 82.3997 95.8595 81.1106C95.6838 80.3489 96.2111 79.6458 96.9142 79.47C97.6759 79.2942 98.4377 79.8215 98.6134 80.5247ZM96.2111 75.1926C96.6799 75.8372 96.5041 76.7161 95.9181 77.1848C95.2736 77.595 94.3947 77.4778 93.9259 76.8333C91.5822 73.4934 87.7736 71.4426 83.7306 71.4426C80.3908 71.384 77.3439 72.6145 75.0588 74.8411C72.8908 77.009 71.7189 79.9387 71.7189 82.9856V84.3918C71.7189 85.1536 71.0744 85.7395 70.3713 85.7395C70.3127 85.7395 70.3127 85.7395 70.3127 85.7395C69.5509 85.7395 68.9064 85.095 68.9064 84.3333V83.0442C68.8478 79.177 70.3127 75.6028 73.008 72.8489C75.8205 70.0364 79.6291 68.5715 83.672 68.5715C88.6525 68.6887 93.34 71.1497 96.2111 75.1926Z" fill="url(#paint1_linear_14_1867)"/>
<path d="M50.5374 50.8929V48.884C50.5374 45.5776 52.9864 42.8572 56.0476 42.8572C59.0706 42.8572 61.5578 45.5776 61.5578 48.884V50.8929H62.17C63.5093 50.8929 64.619 52.1066 64.619 53.5715V61.6072C64.619 63.1139 63.5093 64.2857 62.17 64.2857H49.9251C48.5476 64.2857 47.4762 63.1139 47.4762 61.6072V53.5715C47.4762 52.1066 48.5476 50.8929 49.9251 50.8929H50.5374ZM52.9864 50.8929H59.1088V48.884C59.1088 47.0424 57.7313 45.5357 56.0476 45.5357C54.3257 45.5357 52.9864 47.0424 52.9864 48.884V50.8929Z" fill="url(#paint2_linear_14_1867)"/>
<defs>
<linearGradient id="paint0_linear_14_1867" x1="56.0476" y1="19.2856" x2="56.0476" y2="89.9999" gradientUnits="userSpaceOnUse">
<stop stop-color="white"/>
<stop offset="1" stop-color="white" stop-opacity="0"/>
</linearGradient>
<linearGradient id="paint1_linear_14_1867" x1="83.9201" y1="68.5715" x2="83.9201" y2="98.5715" gradientUnits="userSpaceOnUse">
<stop stop-color="#6366F1"/>
<stop offset="1" stop-color="#AA63F1"/>
</linearGradient>
<linearGradient id="paint2_linear_14_1867" x1="56.0476" y1="32.1429" x2="56.0476" y2="94.6429" gradientUnits="userSpaceOnUse">
<stop stop-color="white"/>
<stop offset="1" stop-color="#9E63FF" stop-opacity="0.23"/>
</linearGradient>
</defs>
</svg>
