<svg width="120" height="120" viewBox="0 0 120 120" fill="none" xmlns="http://www.w3.org/2000/svg">
<mask id="mask0_14_1877" style="mask-type:alpha" maskUnits="userSpaceOnUse" x="18" y="27" width="84" height="57">
<path d="M60 27.8572C95.9821 27.8572 101.786 45.1228 101.786 58.3259C101.786 73.7054 90.3237 83.5715 76.25 83.5715C72.1875 83.5715 68.7054 82.7009 66.529 78.3482L63.6272 72.3996C62.7567 70.6585 61.3058 69.788 60 69.788C58.5491 69.788 57.0982 70.6585 56.2277 72.3996L53.3259 78.3482C51.1495 82.7009 47.6674 83.5715 43.75 83.5715C29.5312 83.5715 18.2143 73.7054 18.2143 58.3259C18.2143 45.1228 23.8728 27.8572 60 27.8572ZM41.4286 65C46.5067 65 50.7143 60.9375 50.7143 55.7143C50.7143 50.6362 46.5067 46.4286 41.4286 46.4286C36.2054 46.4286 32.1429 50.6362 32.1429 55.7143C32.1429 60.9375 36.2054 65 41.4286 65ZM78.5714 65C83.6496 65 87.8571 60.9375 87.8571 55.7143C87.8571 50.6362 83.6496 46.4286 78.5714 46.4286C73.3482 46.4286 69.2857 50.6362 69.2857 55.7143C69.2857 60.9375 73.3482 65 78.5714 65Z" fill="white" fill-opacity="0.01"/>
</mask>
<g mask="url(#mask0_14_1877)">
<rect x="4.28572" width="111.429" height="111.429" fill="#6F5BFF"/>
<path d="M60 27.8572C95.9821 27.8572 101.786 45.1228 101.786 58.3259C101.786 73.7054 90.3237 83.5715 76.25 83.5715C72.1875 83.5715 68.7053 82.7009 66.529 78.3482L63.6272 72.3996C62.7567 70.6585 61.3058 69.788 60 69.788C58.5491 69.788 57.0982 70.6585 56.2277 72.3996L53.3259 78.3482C51.1495 82.7009 47.6674 83.5715 43.75 83.5715C29.5312 83.5715 18.2143 73.7054 18.2143 58.3259C18.2143 45.1228 23.8728 27.8572 60 27.8572ZM41.4286 65C46.5067 65 50.7143 60.9375 50.7143 55.7143C50.7143 50.6362 46.5067 46.4286 41.4286 46.4286C36.2054 46.4286 32.1429 50.6362 32.1429 55.7143C32.1429 60.9375 36.2054 65 41.4286 65ZM78.5714 65C83.6495 65 87.8571 60.9375 87.8571 55.7143C87.8571 50.6362 83.6495 46.4286 78.5714 46.4286C73.3482 46.4286 69.2857 50.6362 69.2857 55.7143C69.2857 60.9375 73.3482 65 78.5714 65Z" stroke="url(#paint0_linear_14_1877)" stroke-width="2.14286"/>
</g>
<path fill-rule="evenodd" clip-rule="evenodd" d="M83.5714 81.9642V92.1428H101.25V81.9642H83.5714ZM97.0982 77.6785V74.866C97.0982 74.3519 97.0144 73.8565 96.8596 73.3928C96.2384 71.5305 94.4748 70.1785 92.4107 70.1785C90.2997 70.1785 88.5643 71.5305 87.9562 73.3928C87.8047 73.8565 87.7232 74.3519 87.7232 74.866V77.6785H97.0982ZM83.9732 74.866V77.6785H83.0357C80.9263 77.6785 79.2857 79.3777 79.2857 81.4285V92.6785C79.2857 94.7878 80.9263 96.4285 83.0357 96.4285H101.786C103.836 96.4285 105.536 94.7878 105.536 92.6785V81.4285C105.536 79.3777 103.836 77.6785 101.786 77.6785H100.848V74.866C100.848 70.2371 97.0396 66.4285 92.4107 66.4285C87.7232 66.4285 83.9732 70.2371 83.9732 74.866Z" fill="url(#paint1_linear_14_1877)"/>
<defs>
<linearGradient id="paint0_linear_14_1877" x1="60" y1="27.8572" x2="60" y2="83.5715" gradientUnits="userSpaceOnUse">
<stop stop-color="white"/>
<stop offset="1" stop-color="white" stop-opacity="0"/>
</linearGradient>
<linearGradient id="paint1_linear_14_1877" x1="92.4107" y1="66.4285" x2="92.4107" y2="96.4285" gradientUnits="userSpaceOnUse">
<stop stop-color="#6366F1"/>
<stop offset="1" stop-color="#AA63F1"/>
</linearGradient>
</defs>
</svg>
