<svg width="121" height="120" viewBox="0 0 121 120" fill="none" xmlns="http://www.w3.org/2000/svg">
<mask id="mask0_14_1887" style="mask-type:alpha" maskUnits="userSpaceOnUse" x="30" y="25" width="61" height="70">
<path d="M43.5241 42.9547C43.5761 52.4182 51.1903 60.0001 60.6667 60.0001C70.1431 60.0001 77.7574 52.4182 77.8093 42.9547C77.8095 42.9222 77.8096 42.8897 77.8096 42.8572C77.8096 42.8252 77.8095 42.7931 77.8093 42.7611C77.7574 33.4292 70.1431 25.7144 60.6667 25.7144C51.1903 25.7144 43.5761 33.4292 43.5241 42.7611C43.524 42.7931 43.5239 42.8252 43.5239 42.8572C43.5239 42.8897 43.524 42.9222 43.5241 42.9547Z" fill="white" fill-opacity="0.01"/>
<path d="M67.4971 66.4286C80.3542 66.4286 90.6667 76.8751 90.6667 89.7322C90.6667 92.2769 88.6578 94.2858 86.1131 94.2858H35.2203C32.6756 94.2858 30.6667 92.2769 30.6667 89.7322C30.6667 76.8751 40.9792 66.4286 53.8364 66.4286H67.4971Z" fill="white" fill-opacity="0.01"/>
</mask>
<g mask="url(#mask0_14_1887)">
<rect x="4.95242" y="4.28564" width="111.429" height="111.429" fill="#6F5BFF"/>
<path d="M43.5241 42.9547C43.5761 52.4182 51.1903 60.0001 60.6667 60.0001C70.1431 60.0001 77.7574 52.4182 77.8093 42.9547C77.8095 42.9222 77.8096 42.8897 77.8096 42.8572C77.8096 42.8252 77.8095 42.7931 77.8093 42.7611C77.7574 33.4292 70.1431 25.7144 60.6667 25.7144C51.1903 25.7144 43.5761 33.4292 43.5241 42.7611C43.524 42.7931 43.5239 42.8252 43.5239 42.8572C43.5239 42.8897 43.524 42.9222 43.5241 42.9547Z" stroke="url(#paint0_linear_14_1887)" stroke-width="2.14286"/>
<path d="M67.4971 66.4286C80.3542 66.4286 90.6667 76.8751 90.6667 89.7322C90.6667 92.2769 88.6578 94.2858 86.1131 94.2858H35.2203C32.6756 94.2858 30.6667 92.2769 30.6667 89.7322C30.6667 76.8751 40.9792 66.4286 53.8364 66.4286H67.4971Z" stroke="url(#paint1_linear_14_1887)" stroke-width="2.14286"/>
</g>
<path d="M91.9307 68.5715C92.165 68.5715 92.458 68.6887 92.6924 68.7473L103.708 73.4348C104.997 74.0208 105.993 75.2512 105.993 76.7747C105.935 82.634 103.532 93.2395 93.4541 98.1028C92.458 98.5715 91.3447 98.5715 90.3486 98.1028C80.2705 93.2395 77.8682 82.634 77.8096 76.7747C77.8096 75.2512 78.8057 74.0208 80.0947 73.4348L91.1104 68.7473C91.3447 68.6887 91.6377 68.5715 91.9307 68.5715Z" fill="url(#paint2_linear_14_1887)"/>
<defs>
<linearGradient id="paint0_linear_14_1887" x1="60.6667" y1="25.7144" x2="60.6667" y2="94.2858" gradientUnits="userSpaceOnUse">
<stop stop-color="white"/>
<stop offset="1" stop-color="white" stop-opacity="0"/>
</linearGradient>
<linearGradient id="paint1_linear_14_1887" x1="60.6667" y1="25.7144" x2="60.6667" y2="94.2858" gradientUnits="userSpaceOnUse">
<stop stop-color="white"/>
<stop offset="1" stop-color="white" stop-opacity="0"/>
</linearGradient>
<linearGradient id="paint2_linear_14_1887" x1="91.9014" y1="68.5715" x2="91.9014" y2="98.4543" gradientUnits="userSpaceOnUse">
<stop stop-color="#6366F1"/>
<stop offset="1" stop-color="#AA63F1"/>
</linearGradient>
</defs>
</svg>
