<svg width="174" height="40" viewBox="0 0 174 40" fill="none" xmlns="http://www.w3.org/2000/svg">
<g clip-path="url(#clip0_1_2849)">
<path d="M31.9639 30.4052C33.526 31.9673 33.526 34.5 31.9639 36.0621L30.8232 37.2028C29.2611 38.7649 26.7285 38.7649 25.1664 37.2028L21.1579 33.1943L27.9555 26.3968L31.9639 30.4052Z" fill="white" fill-opacity="0.6"/>
<path d="M3.60961 30.4086C2.06014 31.9729 2.06612 34.4952 3.62298 36.0521L4.76363 37.1927C6.33097 38.76 8.87396 38.754 10.4339 37.1793L17.7984 29.7446L11.0008 22.9471L3.60961 30.4086Z" fill="white" fill-opacity="0.6"/>
<path fill-rule="evenodd" clip-rule="evenodd" d="M38.2303 1.5351C36.6691 -0.0260675 34.1383 -0.0271353 32.5758 1.53272L17.8586 16.2251L9.9426 8.30913C8.69117 7.0577 6.66231 7.0577 5.41088 8.30913L3.14498 10.5749C1.89365 11.8264 1.89365 13.8552 3.14498 15.1067L17.8529 29.8146L20.5848 27.0827C20.6242 27.0464 20.6631 27.0091 20.7013 26.9709L39.3686 8.33505C40.933 6.77334 40.934 4.23884 39.371 2.67581L38.2303 1.5351Z" fill="white" fill-opacity="0.6"/>
</g>
<path d="M65.9098 29.9231H52.6406V21.2308H64.4867V17.5385H52.6406V9.69231H65.6406V6H48.4098V33.6154H65.9098V29.9231Z" fill="white" fill-opacity="0.6"/>
<path d="M70.2746 33.6154L75.6592 25.5L81.1207 33.6154H85.5823L78.4284 23.3077L85.1207 13.2308H80.9284L75.89 20.9231L70.8515 13.2308H66.3515L73.1207 23.1923L65.89 33.6154H70.2746Z" fill="white" fill-opacity="0.6"/>
<path d="M97.0699 33.6154C105.608 33.6154 111.301 27.6923 111.301 19.6538C111.301 11.6154 105.801 6 97.0699 6H86.3007V33.6154H97.0699ZM93.57 12.2692H96.6469C101.378 12.2692 103.839 14.7692 103.839 19.6538C103.839 24.8462 101.455 27.3462 96.6469 27.3462H93.57V12.2692Z" fill="white" fill-opacity="0.6"/>
<path d="M121.629 34C127.745 34 132.437 29.1923 132.437 23.2692C132.437 17.3462 127.745 12.5385 121.629 12.5385C115.514 12.5385 110.822 17.3462 110.822 23.2692C110.822 29.1923 115.514 34 121.629 34ZM121.629 28.1154C119.591 28.1154 117.668 26.5 117.668 23.2692C117.668 20.0385 119.591 18.4615 121.629 18.4615C123.668 18.4615 125.591 20.0385 125.591 23.2692C125.591 26.5 123.668 28.1154 121.629 28.1154Z" fill="white" fill-opacity="0.6"/>
<path d="M139.627 22.7308C139.627 19.6154 141.089 18.4615 142.704 18.4615C144.704 18.4615 145.627 19.8846 145.627 22.5V33.6154H152.204V20.3077C152.204 15.2692 149.32 12.5385 145.243 12.5385C142.627 12.5385 140.704 13.6154 139.089 15.4231V12.9231H133.05V33.6154H139.627V22.7308Z" fill="white" fill-opacity="0.6"/>
<path d="M163.28 33.9615C168.434 33.9615 172.088 31.3077 173.357 26.5769H166.78C166.203 28.0769 164.972 28.8462 163.126 28.8462C161.011 28.8462 159.78 27.5385 159.434 24.9231H173.472C174.665 18.1154 170.088 12.5385 163.242 12.5385C157.088 12.5385 152.626 17.0385 152.626 23.2308C152.626 29.6538 156.895 33.9615 163.28 33.9615ZM163.088 17.3846C165.049 17.3846 166.357 18.7308 166.434 20.8077H159.511C159.972 18.5 161.126 17.3846 163.088 17.3846Z" fill="white" fill-opacity="0.6"/>
<defs>
<clipPath id="clip0_1_2849">
<rect width="40" height="40" fill="white" transform="translate(0.40979)"/>
</clipPath>
</defs>
</svg>
