<svg width="166" height="40" viewBox="0 0 166 40" fill="none" xmlns="http://www.w3.org/2000/svg">
<g clip-path="url(#clip0_1_2890)">
<path fill-rule="evenodd" clip-rule="evenodd" d="M40.3928 20L27.0595 33.3333L20.3929 26.6667L27.0595 20.0001L20.3928 13.3334L27.0595 6.66675L40.3928 20ZM19.6071 14.1191L13.7262 20L19.6072 25.881L25.4881 20.0001L19.6071 14.1191Z" fill="white" fill-opacity="0.6"/>
<path d="M13.7262 8.23834L1.96417 20.0003L13.7262 31.7623L19.6071 25.8813L20.3928 26.667L13.7262 33.3337L0.392822 20.0003L13.7262 6.66699L20.3928 13.3337L19.6071 14.1193L13.7262 8.23834Z" fill="white" fill-opacity="0.6"/>
</g>
<path d="M51.2968 26.48C50.4968 26.48 49.8088 26.2 49.2328 25.64C48.6728 25.064 48.3928 24.376 48.3928 23.576V15.464C48.3928 14.664 48.6728 13.984 49.2328 13.424C49.8088 12.848 50.4968 12.56 51.2968 12.56H59.6488C60.4648 12.56 61.1528 12.848 61.7128 13.424C62.2888 13.984 62.5768 14.664 62.5768 15.464V23.576C62.5768 24.376 62.2888 25.064 61.7128 25.64C61.1528 26.2 60.4648 26.48 59.6488 26.48H51.2968ZM51.2968 24.512H59.6488C59.9048 24.512 60.1208 24.424 60.2968 24.248C60.4888 24.056 60.5848 23.832 60.5848 23.576V15.464C60.5848 15.208 60.4888 14.992 60.2968 14.816C60.1208 14.624 59.9048 14.528 59.6488 14.528H51.2968C51.0408 14.528 50.8168 14.624 50.6248 14.816C50.4488 14.992 50.3608 15.208 50.3608 15.464V23.576C50.3608 23.832 50.4488 24.056 50.6248 24.248C50.8168 24.424 51.0408 24.512 51.2968 24.512Z" fill="white" fill-opacity="0.6"/>
<path d="M71.6653 26.48L63.9853 12.56H66.2893L72.8173 24.56L79.3453 12.56H81.6493L73.9453 26.48H71.6653Z" fill="white" fill-opacity="0.6"/>
<path d="M85.8437 26.48C85.0437 26.48 84.3557 26.2 83.7797 25.64C83.2197 25.064 82.9397 24.376 82.9397 23.576V15.464C82.9397 14.664 83.2197 13.984 83.7797 13.424C84.3557 12.848 85.0437 12.56 85.8437 12.56H94.1957C95.0117 12.56 95.6997 12.848 96.2597 13.424C96.8357 13.984 97.1237 14.664 97.1237 15.464V20.504H84.9077V23.576C84.9077 23.832 84.9957 24.056 85.1717 24.248C85.3637 24.424 85.5877 24.512 85.8437 24.512H97.1237V26.48H85.8437ZM84.9077 18.536H95.1317V15.464C95.1317 15.208 95.0357 14.992 94.8437 14.816C94.6677 14.624 94.4517 14.528 94.1957 14.528H85.8437C85.5877 14.528 85.3637 14.624 85.1717 14.816C84.9957 14.992 84.9077 15.208 84.9077 15.464V18.536Z" fill="white" fill-opacity="0.6"/>
<path d="M99.4637 26.48V15.464C99.4637 14.664 99.7437 13.984 100.304 13.424C100.88 12.848 101.568 12.56 102.368 12.56H110.192V14.528H102.368C102.112 14.528 101.888 14.624 101.696 14.816C101.52 14.992 101.432 15.208 101.432 15.464V26.48H99.4637Z" fill="white" fill-opacity="0.6"/>
<path d="M114.649 26.48C113.849 26.48 113.161 26.2 112.585 25.64C112.025 25.064 111.745 24.376 111.745 23.576V8H113.713V23.576C113.713 23.832 113.801 24.056 113.977 24.248C114.169 24.424 114.393 24.512 114.649 24.512H117.001V26.48H114.649Z" fill="white" fill-opacity="0.6"/>
<path d="M121.657 26.48C120.857 26.48 120.169 26.2 119.593 25.64C119.033 25.064 118.753 24.376 118.753 23.576V18.536H130.945V15.464C130.945 15.208 130.849 14.992 130.657 14.816C130.481 14.624 130.265 14.528 130.009 14.528H118.753V12.56H130.009C130.825 12.56 131.513 12.848 132.073 13.424C132.649 13.984 132.937 14.664 132.937 15.464V26.48H121.657ZM121.657 24.512H130.945V20.504H120.721V23.576C120.721 23.832 120.809 24.056 120.985 24.248C121.177 24.424 121.401 24.512 121.657 24.512Z" fill="white" fill-opacity="0.6"/>
<path d="M137.745 32V30.008H146.433C146.689 30.008 146.905 29.912 147.081 29.72C147.273 29.544 147.369 29.328 147.369 29.072V26.48H138.081C137.281 26.48 136.593 26.2 136.017 25.64C135.457 25.064 135.177 24.376 135.177 23.576V12.608H137.145V23.576C137.145 23.832 137.233 24.056 137.409 24.248C137.601 24.424 137.825 24.512 138.081 24.512H146.433C146.689 24.512 146.905 24.424 147.081 24.248C147.273 24.056 147.369 23.832 147.369 23.576V12.608H149.337V29.072C149.337 29.888 149.057 30.576 148.497 31.136C147.937 31.712 147.249 32 146.433 32H137.745Z" fill="white" fill-opacity="0.6"/>
<path d="M154.655 26.48C153.855 26.48 153.167 26.2 152.591 25.64C152.031 25.064 151.751 24.376 151.751 23.576V23.384H153.719V23.576C153.719 23.832 153.807 24.056 153.983 24.248C154.175 24.424 154.399 24.512 154.655 24.512H163.007C163.263 24.512 163.479 24.424 163.655 24.248C163.847 24.056 163.943 23.832 163.943 23.576V21.44C163.943 21.184 163.847 20.968 163.655 20.792C163.479 20.6 163.263 20.504 163.007 20.504H154.655C153.855 20.504 153.167 20.224 152.591 19.664C152.031 19.088 151.751 18.4 151.751 17.6V15.464C151.751 14.664 152.031 13.984 152.591 13.424C153.167 12.848 153.855 12.56 154.655 12.56H163.007C163.823 12.56 164.511 12.848 165.071 13.424C165.647 13.984 165.935 14.664 165.935 15.464V15.656H163.943V15.464C163.943 15.208 163.847 14.992 163.655 14.816C163.479 14.624 163.263 14.528 163.007 14.528H154.655C154.399 14.528 154.175 14.624 153.983 14.816C153.807 14.992 153.719 15.208 153.719 15.464V17.6C153.719 17.856 153.807 18.08 153.983 18.272C154.175 18.448 154.399 18.536 154.655 18.536H163.007C163.823 18.536 164.511 18.824 165.071 19.4C165.647 19.96 165.935 20.64 165.935 21.44V23.576C165.935 24.376 165.647 25.064 165.071 25.64C164.511 26.2 163.823 26.48 163.007 26.48H154.655Z" fill="white" fill-opacity="0.6"/>
<defs>
<clipPath id="clip0_1_2890">
<rect width="40" height="40" fill="white" transform="translate(0.392822)"/>
</clipPath>
</defs>
</svg>
