<svg width="208" height="40" viewBox="0 0 208 40" fill="none" xmlns="http://www.w3.org/2000/svg">
<path fill-rule="evenodd" clip-rule="evenodd" d="M7.17062 4V16.6969H11.4029V4H7.17062ZM18.545 4V23.0454H22.7773V4H18.545ZM30.1838 16.6969V4H34.4161V16.6969H30.1838ZM20.6611 36C12.5764 36 5.77528 30.5046 3.78928 23.0454H8.22173C10.0639 28.1326 14.938 31.7677 20.6611 31.7677C26.3842 31.7677 31.2583 28.1326 33.1005 23.0454H37.533C35.547 30.5046 28.7458 36 20.6611 36Z" fill="white" fill-opacity="0.6"/>
<path d="M53.7251 28.46V15.116H48.6611V11.54H63.2531V15.116H58.1891V28.46H53.7251Z" fill="white" fill-opacity="0.6"/>
<path d="M69.0732 28.46V11.54H81.0972V14.948H73.3692V18.164H80.6172V21.548H73.3692V25.052H81.0972V28.46H69.0732Z" fill="white" fill-opacity="0.6"/>
<path d="M100.071 28.46L98.5586 24.956H91.0706L89.5586 28.46H85.1186L93.0146 11.54H96.5186L104.439 28.46H100.071ZM92.4866 21.644H97.1426L94.8146 16.22L92.4866 21.644Z" fill="white" fill-opacity="0.6"/>
<path d="M123.12 11.54H126.528V28.46H122.688V19.58L119.424 25.652H116.592L113.352 19.724L113.328 28.46H109.488V11.54H112.968L118.056 21.164L123.12 11.54Z" fill="white" fill-opacity="0.6"/>
<path d="M137.46 28.46V15.116H132.396V11.54H146.988V15.116H141.924V28.46H137.46Z" fill="white" fill-opacity="0.6"/>
<path d="M163.492 28.46L161.98 24.956H154.492L152.98 28.46H148.54L156.436 11.54H159.94L167.86 28.46H163.492ZM155.908 21.644H160.564L158.236 16.22L155.908 21.644Z" fill="white" fill-opacity="0.6"/>
<path d="M172.862 28.46V11.54H177.278V24.884H184.478V28.46H172.862Z" fill="white" fill-opacity="0.6"/>
<path d="M207.061 28.46H201.829L195.013 20.804V28.46H190.597V11.54H195.013V18.812L201.637 11.54H206.797L199.333 19.58L207.061 28.46Z" fill="white" fill-opacity="0.6"/>
</svg>
