<svg width="167" height="40" viewBox="0 0 167 40" fill="none" xmlns="http://www.w3.org/2000/svg">
<path fill-rule="evenodd" clip-rule="evenodd" d="M10.4607 16.8499C10.4607 20.7686 12.8086 24.1389 16.1745 25.6307C18.1941 26.5259 20.0607 28.2407 20.0607 30.4499L20.0607 32.8499C11.2241 32.8499 4.06067 25.6864 4.06067 16.8499C4.06067 8.0133 11.2241 0.849853 20.0607 0.849853L20.0607 7.24985C14.7587 7.24985 10.4607 11.5479 10.4607 16.8499Z" fill="white" fill-opacity="0.6"/>
<path fill-rule="evenodd" clip-rule="evenodd" d="M29.6607 23.1499C29.6607 19.2312 27.3127 15.8609 23.9468 14.369C21.9272 13.4739 20.0607 11.759 20.0607 9.5499L20.0607 7.1499C28.8972 7.1499 36.0607 14.3133 36.0607 23.1499C36.0607 31.9865 28.8972 39.1499 20.0607 39.1499L20.0607 32.7499C25.3626 32.7499 29.6607 28.4518 29.6607 23.1499Z" fill="white" fill-opacity="0.6"/>
<path d="M48.3407 12.4539C48.3407 15.5899 50.1607 17.5779 53.6327 18.3339L56.8807 19.0619C58.5607 19.4259 59.2607 20.2379 59.2607 21.6099C59.2607 23.3179 57.7487 24.3539 55.3687 24.3539C53.0727 24.3539 51.6727 23.3179 51.6447 21.5819H48.0607C48.1447 25.2499 51.0007 27.5739 55.3687 27.5739C59.8767 27.5739 62.8447 25.1099 62.8447 21.3019C62.8447 18.2499 61.1367 16.4579 57.6367 15.7019L54.4167 15.0019C52.7087 14.6099 51.9247 13.7979 51.9247 12.3419C51.9247 10.6339 53.3527 9.56993 55.5647 9.56993C57.5807 9.56993 58.8407 10.6059 58.9247 12.3699H62.5087C62.3967 8.67393 59.7647 6.37793 55.6207 6.37793C51.3087 6.37793 48.3407 8.86993 48.3407 12.4539Z" fill="white" fill-opacity="0.6"/>
<path d="M67.027 27.2099V6.37793H63.639V27.2099H67.027Z" fill="white" fill-opacity="0.6"/>
<path d="M72.7263 27.5739C74.8823 27.5739 76.7583 26.5939 77.3463 25.1659L77.5983 27.2099H80.5943V18.8099C80.5943 14.9739 78.2983 12.9579 74.5743 12.9579C70.8223 12.9579 68.3583 14.9179 68.3583 17.9139H71.2703C71.2703 16.4579 72.3903 15.6179 74.4063 15.6179C76.1423 15.6179 77.2623 16.3739 77.2623 18.2499V18.5579L73.1183 18.8659C69.8423 19.1179 67.9943 20.7139 67.9943 23.2619C67.9943 25.8659 69.7863 27.5739 72.7263 27.5739ZM73.8463 24.9979C72.3063 24.9979 71.4663 24.3819 71.4663 23.1219C71.4663 22.0019 72.2783 21.3019 74.4063 21.1059L77.2903 20.8819V21.6099C77.2903 23.7379 75.9463 24.9979 73.8463 24.9979Z" fill="white" fill-opacity="0.6"/>
<path d="M85.1142 27.2099L85.3382 25.0539C86.1502 26.6499 87.9142 27.5739 89.9862 27.5739C93.9622 27.5739 96.5662 24.6339 96.5662 20.3779C96.5662 16.0099 94.1582 12.9299 90.2102 12.9299C88.1102 12.9299 86.2622 13.8539 85.3662 15.3939V6.37793H81.9502V27.2099H85.1142ZM85.3942 20.2379C85.3942 17.7459 86.9342 16.0099 89.2862 16.0099C91.6942 16.0099 93.1222 17.7739 93.1222 20.2379C93.1222 22.7019 91.6942 24.4379 89.2862 24.4379C86.9342 24.4379 85.3942 22.7299 85.3942 20.2379Z" fill="white" fill-opacity="0.6"/>
<path d="M96.6141 12.4539C96.6141 15.5899 98.4341 17.5779 101.906 18.3339L105.154 19.0619C106.834 19.4259 107.534 20.2379 107.534 21.6099C107.534 23.3179 106.022 24.3539 103.642 24.3539C101.346 24.3539 99.9461 23.3179 99.9181 21.5819H96.3341C96.4181 25.2499 99.2741 27.5739 103.642 27.5739C108.15 27.5739 111.118 25.1099 111.118 21.3019C111.118 18.2499 109.41 16.4579 105.91 15.7019L102.69 15.0019C100.982 14.6099 100.198 13.7979 100.198 12.3419C100.198 10.6339 101.626 9.56993 103.838 9.56993C105.854 9.56993 107.114 10.6059 107.198 12.3699H110.782C110.67 8.67393 108.038 6.37793 103.894 6.37793C99.5821 6.37793 96.6141 8.86993 96.6141 12.4539Z" fill="white" fill-opacity="0.6"/>
<path d="M111.856 33.6219H115.272V25.3619C116.14 26.7619 117.932 27.5739 120.004 27.5739C124.12 27.5739 126.472 24.4379 126.472 20.1259C126.472 15.7859 123.896 12.9579 120.004 12.9579C117.904 12.9579 116.084 13.8819 115.244 15.4779L115.02 13.3779H111.856V33.6219ZM115.3 20.2939C115.3 17.8019 116.84 16.0659 119.192 16.0659C121.6 16.0659 123.028 17.8299 123.028 20.2939C123.028 22.7579 121.6 24.4939 119.192 24.4939C116.84 24.4939 115.3 22.7859 115.3 20.2939Z" fill="white" fill-opacity="0.6"/>
<path d="M131.308 27.5739C133.464 27.5739 135.34 26.5939 135.928 25.1659L136.18 27.2099H139.176V18.8099C139.176 14.9739 136.88 12.9579 133.156 12.9579C129.404 12.9579 126.94 14.9179 126.94 17.9139H129.852C129.852 16.4579 130.972 15.6179 132.988 15.6179C134.724 15.6179 135.844 16.3739 135.844 18.2499V18.5579L131.7 18.8659C128.424 19.1179 126.576 20.7139 126.576 23.2619C126.576 25.8659 128.368 27.5739 131.308 27.5739ZM132.428 24.9979C130.888 24.9979 130.048 24.3819 130.048 23.1219C130.048 22.0019 130.86 21.3019 132.988 21.1059L135.872 20.8819V21.6099C135.872 23.7379 134.528 24.9979 132.428 24.9979Z" fill="white" fill-opacity="0.6"/>
<path d="M139.72 20.2659C139.72 24.6619 142.464 27.5739 146.664 27.5739C150.276 27.5739 152.964 25.3619 153.384 22.1419H149.94C149.576 23.6539 148.372 24.4939 146.664 24.4939C144.48 24.4939 143.136 22.8699 143.136 20.2659C143.136 17.6619 144.592 16.0099 146.776 16.0099C148.4 16.0099 149.548 16.8219 149.94 18.3899H153.356C152.992 15.0579 150.416 12.9579 146.636 12.9579C142.548 12.9579 139.72 15.9819 139.72 20.2659Z" fill="white" fill-opacity="0.6"/>
<path d="M160.115 27.5739C163.727 27.5739 166.247 25.7539 166.835 22.7299H163.671C163.279 24.0459 162.047 24.7739 160.171 24.7739C157.903 24.7739 156.615 23.5419 156.363 21.1059L166.779 21.0779V20.0419C166.779 15.7299 164.147 12.9579 160.003 12.9579C155.943 12.9579 153.115 15.9539 153.115 20.2939C153.115 24.5779 155.999 27.5739 160.115 27.5739ZM160.031 15.7579C162.075 15.7579 163.391 17.0179 163.391 18.9219H156.447C156.783 16.8499 158.015 15.7579 160.031 15.7579Z" fill="white" fill-opacity="0.6"/>
</svg>
