<svg width="87" height="40" viewBox="0 0 87 40" fill="none" xmlns="http://www.w3.org/2000/svg">
<path d="M-34.7256 30C-36.0954 30 -37.3697 29.7486 -38.5488 29.2458C-39.7104 28.743 -40.7334 28.0494 -41.6177 27.1651C-42.4846 26.2635 -43.1608 25.2059 -43.6463 23.9922C-44.1318 22.7785 -44.3745 21.4434 -44.3745 19.987C-44.3745 18.5479 -44.1404 17.2215 -43.6723 16.0078C-43.1868 14.7768 -42.5106 13.7191 -41.6437 12.8349C-40.7768 11.9332 -39.7625 11.2397 -38.6008 10.7542C-37.4391 10.2514 -36.1647 10 -34.7776 10C-33.4079 10 -32.1855 10.2341 -31.1105 10.7022C-30.0182 11.1704 -29.0993 11.7859 -28.3537 12.5488C-27.6081 13.2943 -27.0707 14.1092 -26.7412 14.9935L-29.472 16.3199C-29.8708 15.2622 -30.5297 14.4127 -31.4486 13.7711C-32.3676 13.1123 -33.4772 12.7828 -34.7776 12.7828C-36.0607 12.7828 -37.1964 13.0863 -38.1847 13.6931C-39.173 14.3 -39.9445 15.1409 -40.4993 16.2159C-41.0368 17.2909 -41.3056 18.5479 -41.3056 19.987C-41.3056 21.4261 -41.0282 22.6918 -40.4733 23.7841C-39.9012 24.8591 -39.1209 25.7 -38.1326 26.3069C-37.1443 26.8964 -36.0087 27.1912 -34.7256 27.1912C-33.6506 27.1912 -32.671 26.9744 -31.7867 26.541C-30.8851 26.0902 -30.1656 25.466 -29.6281 24.6684C-29.0906 23.8535 -28.8218 22.9085 -28.8218 21.8335V20.5072L-27.4434 21.7555H-34.7776V19.1547H-25.7789V20.9753C-25.7789 22.3971 -26.0217 23.6714 -26.5072 24.7984C-26.9926 25.9081 -27.6515 26.8531 -28.4837 27.6333C-29.316 28.4135 -30.2696 29.003 -31.3446 29.4018C-32.4196 29.8006 -33.5466 30 -34.7256 30Z" fill="white" fill-opacity="0.6"/>
<path d="M-24.5572 29.6879V10H-21.6183V29.6879H-24.5572Z" fill="white" fill-opacity="0.6"/>
<path d="M-13.0197 30C-14.3721 30 -15.6118 29.6792 -16.7388 29.0377C-17.8484 28.3962 -18.7327 27.5206 -19.3916 26.4109C-20.0504 25.3013 -20.3799 24.0442 -20.3799 22.6398C-20.3799 21.218 -20.0504 19.961 -19.3916 18.8687C-18.7327 17.759 -17.8484 16.8921 -16.7388 16.2679C-15.6291 15.6264 -14.3894 15.3056 -13.0197 15.3056C-11.6326 15.3056 -10.3929 15.6264 -9.30055 16.2679C-8.19088 16.8921 -7.31529 17.759 -6.67376 18.8687C-6.0149 19.961 -5.68547 21.218 -5.68547 22.6398C-5.68547 24.0616 -6.0149 25.3273 -6.67376 26.4369C-7.33263 27.5466 -8.21689 28.4222 -9.32656 29.0637C-10.4362 29.6879 -11.6673 30 -13.0197 30ZM-13.0197 27.2692C-12.1874 27.2692 -11.4505 27.0698 -10.809 26.671C-10.1675 26.2722 -9.66466 25.7261 -9.30055 25.0325C-8.91911 24.3216 -8.72838 23.5241 -8.72838 22.6398C-8.72838 21.7555 -8.91911 20.9666 -9.30055 20.2731C-9.66466 19.5795 -10.1675 19.0334 -10.809 18.6346C-11.4505 18.2358 -12.1874 18.0364 -13.0197 18.0364C-13.8346 18.0364 -14.5715 18.2358 -15.2303 18.6346C-15.8719 19.0334 -16.3833 19.5795 -16.7648 20.2731C-17.1289 20.9666 -17.311 21.7555 -17.311 22.6398C-17.311 23.5241 -17.1289 24.3216 -16.7648 25.0325C-16.3833 25.7261 -15.8719 26.2722 -15.2303 26.671C-14.5715 27.0698 -13.8346 27.2692 -13.0197 27.2692Z" fill="white" fill-opacity="0.6"/>
<path d="M3.07449 30C1.98216 30 0.985195 29.7746 0.0835915 29.3238C-0.800674 28.873 -1.48555 28.2228 -1.97102 27.3732L-1.63292 26.827V29.6879H-4.44177V10H-1.50288V18.5306L-1.97102 17.8544C-1.45087 17.0568 -0.757328 16.4326 0.1096 15.9818C0.976528 15.531 1.96482 15.3056 3.07449 15.3056C4.40955 15.3056 5.60592 15.6264 6.66357 16.2679C7.73855 16.9094 8.57947 17.785 9.18632 18.8947C9.81051 20.0043 10.1226 21.2527 10.1226 22.6398C10.1226 24.0269 9.81051 25.2752 9.18632 26.3849C8.57947 27.4946 7.74722 28.3788 6.68957 29.0377C5.63192 29.6792 4.4269 30 3.07449 30ZM2.7884 27.2692C3.62065 27.2692 4.35754 27.0698 4.99907 26.671C5.64059 26.2722 6.14341 25.7261 6.50752 25.0325C6.88897 24.3216 7.07969 23.5241 7.07969 22.6398C7.07969 21.7555 6.88897 20.9666 6.50752 20.2731C6.14341 19.5795 5.64059 19.0334 4.99907 18.6346C4.35754 18.2358 3.62065 18.0364 2.7884 18.0364C1.97349 18.0364 1.23661 18.2358 0.57774 18.6346C-0.0637856 19.0334 -0.575272 19.5795 -0.956718 20.2731C-1.32083 20.9666 -1.50288 21.7555 -1.50288 22.6398C-1.50288 23.5241 -1.32083 24.3216 -0.956718 25.0325C-0.575272 25.7261 -0.0637856 26.2722 0.57774 26.671C1.23661 27.0698 1.97349 27.2692 2.7884 27.2692Z" fill="white" fill-opacity="0.6"/>
<path d="M15.5692 30C14.6156 30 13.7747 29.8353 13.0464 29.5059C12.3356 29.1591 11.7807 28.6909 11.3819 28.1014C10.9832 27.4946 10.7838 26.7837 10.7838 25.9688C10.7838 25.2059 10.9485 24.521 11.2779 23.9142C11.6247 23.3073 12.1535 22.7958 12.8644 22.3797C13.5753 21.9636 14.4682 21.6688 15.5432 21.4954L20.4327 20.6892V23.0039L16.1154 23.7581C15.3351 23.8968 14.763 24.1482 14.3989 24.5124C14.0347 24.8591 13.8527 25.3099 13.8527 25.8648C13.8527 26.4023 14.0521 26.8444 14.4509 27.1912C14.867 27.5206 15.3958 27.6853 16.0373 27.6853C16.8349 27.6853 17.5285 27.5119 18.118 27.1651C18.7248 26.8184 19.193 26.3589 19.5224 25.7867C19.8518 25.1972 20.0165 24.547 20.0165 23.8362V20.2211C20.0165 19.5275 19.7565 18.964 19.2363 18.5306C18.7335 18.0798 18.0573 17.8544 17.2077 17.8544C16.4275 17.8544 15.7426 18.0624 15.1531 18.4785C14.5809 18.8773 14.1561 19.3975 13.8787 20.039L11.434 18.8166C11.694 18.1231 12.1188 17.5163 12.7083 16.9961C13.2979 16.4586 13.9827 16.0425 14.763 15.7477C15.5605 15.453 16.4014 15.3056 17.2857 15.3056C18.3954 15.3056 19.375 15.5137 20.2246 15.9298C21.0915 16.3459 21.7591 16.9267 22.2272 17.6723C22.7127 18.4005 22.9554 19.2501 22.9554 20.2211V29.6879H20.1466V27.1391L20.7448 27.2172C20.4153 27.7893 19.9905 28.2835 19.4704 28.6996C18.9676 29.1157 18.3867 29.4365 17.7279 29.6619C17.0863 29.8873 16.3668 30 15.5692 30Z" fill="white" fill-opacity="0.6"/>
<path d="M24.7662 29.6879V10H27.7051V29.6879H24.7662Z" fill="white" fill-opacity="0.6"/>
<path d="M36.1997 30C34.7953 30 33.5469 29.6792 32.4546 29.0377C31.3796 28.3788 30.5213 27.4946 29.8798 26.3849C29.2556 25.2752 28.9435 24.0182 28.9435 22.6138C28.9435 21.2267 29.2556 19.9783 29.8798 18.8687C30.504 17.759 31.3622 16.8921 32.4546 16.2679C33.5469 15.6264 34.7953 15.3056 36.1997 15.3056C37.1533 15.3056 38.0462 15.479 38.8785 15.8257C39.7107 16.1552 40.4303 16.6147 41.0371 17.2042C41.6613 17.7937 42.1208 18.4785 42.4156 19.2588L39.8408 20.4551C39.546 19.7269 39.0692 19.1461 38.4103 18.7126C37.7688 18.2618 37.0319 18.0364 36.1997 18.0364C35.4021 18.0364 34.6826 18.2358 34.041 18.6346C33.4169 19.016 32.9227 19.5622 32.5586 20.2731C32.1945 20.9666 32.0124 21.7555 32.0124 22.6398C32.0124 23.5241 32.1945 24.3216 32.5586 25.0325C32.9227 25.7261 33.4169 26.2722 34.041 26.671C34.6826 27.0698 35.4021 27.2692 36.1997 27.2692C37.0493 27.2692 37.7862 27.0524 38.4103 26.619C39.0519 26.1682 39.5287 25.57 39.8408 24.8244L42.4156 26.0468C42.1381 26.7924 41.6873 27.4686 41.0631 28.0754C40.4563 28.6649 39.7367 29.1331 38.9045 29.4798C38.0723 29.8266 37.1706 30 36.1997 30Z" fill="white" fill-opacity="0.6"/>
<path d="M43.6625 29.6879V10H46.6014V18.3745L46.1332 18.0104C46.48 17.1261 47.0348 16.4586 47.7977 16.0078C48.5606 15.5397 49.4449 15.3056 50.4505 15.3056C51.4909 15.3056 52.4098 15.531 53.2074 15.9818C54.0049 16.4326 54.6291 17.0568 55.0799 17.8544C55.5307 18.6519 55.7561 19.5622 55.7561 20.5852V29.6879H52.8433V21.3914C52.8433 20.6805 52.7046 20.0824 52.4271 19.5969C52.1671 19.0941 51.8029 18.7126 51.3348 18.4525C50.8667 18.1751 50.3292 18.0364 49.7223 18.0364C49.1328 18.0364 48.5953 18.1751 48.1098 18.4525C47.6417 18.7126 47.2689 19.0941 46.9915 19.5969C46.7314 20.0997 46.6014 20.6979 46.6014 21.3914V29.6879H43.6625Z" fill="white" fill-opacity="0.6"/>
<path d="M61.4892 30C60.5356 30 59.6947 29.8353 58.9665 29.5059C58.2556 29.1591 57.7008 28.6909 57.302 28.1014C56.9032 27.4946 56.7038 26.7837 56.7038 25.9688C56.7038 25.2059 56.8685 24.521 57.1979 23.9142C57.5447 23.3073 58.0735 22.7958 58.7844 22.3797C59.4953 21.9636 60.3882 21.6688 61.4632 21.4954L66.3527 20.6892V23.0039L62.0354 23.7581C61.2552 23.8968 60.683 24.1482 60.3189 24.5124C59.9548 24.8591 59.7727 25.3099 59.7727 25.8648C59.7727 26.4023 59.9721 26.8444 60.3709 27.1912C60.787 27.5206 61.3158 27.6853 61.9574 27.6853C62.7549 27.6853 63.4485 27.5119 64.038 27.1651C64.6449 26.8184 65.113 26.3589 65.4424 25.7867C65.7719 25.1972 65.9366 24.547 65.9366 23.8362V20.2211C65.9366 19.5275 65.6765 18.964 65.1563 18.5306C64.6535 18.0798 63.9773 17.8544 63.1277 17.8544C62.3475 17.8544 61.6626 18.0624 61.0731 18.4785C60.5009 18.8773 60.0761 19.3975 59.7987 20.039L57.354 18.8166C57.6141 18.1231 58.0389 17.5163 58.6284 16.9961C59.2179 16.4586 59.9028 16.0425 60.683 15.7477C61.4806 15.453 62.3215 15.3056 63.2057 15.3056C64.3154 15.3056 65.295 15.5137 66.1446 15.9298C67.0116 16.3459 67.6791 16.9267 68.1472 17.6723C68.6327 18.4005 68.8755 19.2501 68.8755 20.2211V29.6879H66.0666V27.1391L66.6648 27.2172C66.3354 27.7893 65.9106 28.2835 65.3904 28.6996C64.8876 29.1157 64.3067 29.4365 63.6479 29.6619C63.0063 29.8873 62.2868 30 61.4892 30Z" fill="white" fill-opacity="0.6"/>
<path d="M70.6862 29.6879V15.6177H73.4951V18.4525L73.235 18.0364C73.5471 17.1175 74.0499 16.4586 74.7435 16.0598C75.437 15.6437 76.2692 15.4356 77.2402 15.4356H78.0985V18.1144H76.8761C75.9051 18.1144 75.1162 18.4179 74.5094 19.0247C73.9199 19.6142 73.6251 20.4638 73.6251 21.5735V29.6879H70.6862Z" fill="white" fill-opacity="0.6"/>
<path d="M84.8233 29.844C83.3495 29.844 82.2052 29.4278 81.3903 28.5956C80.5754 27.7633 80.1679 26.593 80.1679 25.0845V18.2705H77.6972V15.6177H78.0873C78.7461 15.6177 79.2576 15.427 79.6217 15.0455C79.9859 14.6641 80.1679 14.1439 80.1679 13.485V12.3927H83.1068V15.6177H86.3058V18.2705H83.1068V24.9545C83.1068 25.44 83.1848 25.8561 83.3409 26.2029C83.4969 26.5323 83.7483 26.7924 84.0951 26.9831C84.4418 27.1565 84.8927 27.2432 85.4475 27.2432C85.5862 27.2432 85.7422 27.2345 85.9156 27.2172C86.089 27.1998 86.2537 27.1825 86.4098 27.1651V29.6879C86.1671 29.7226 85.8983 29.7573 85.6035 29.7919C85.3088 29.8266 85.0487 29.844 84.8233 29.844Z" fill="white" fill-opacity="0.6"/>
</svg>
