<svg width="136" height="40" viewBox="0 0 136 40" fill="none" xmlns="http://www.w3.org/2000/svg">
<path d="M24.9547 10C17.2256 10 10.0884 14.3669 6.63186 21.28L1.27188 32H9.01047C12.0406 32 14.8108 30.288 16.1659 27.5777L24.9547 10Z" fill="white" fill-opacity="0.6"/>
<path d="M27.2014 10L22.0943 21.2096L27.2014 32H39.8843L27.2014 10Z" fill="white" fill-opacity="0.6"/>
<path d="M51.7814 32C50.3601 32 49.1003 31.6662 48.0021 30.9987C46.9038 30.3096 46.0532 29.3405 45.4503 28.0915C44.8688 26.821 44.5781 25.3351 44.5781 23.6339C44.5781 21.9112 44.8796 20.4145 45.4826 19.144C46.0855 17.852 46.9254 16.8506 48.0021 16.14C49.1003 15.4078 50.3601 15.0417 51.7814 15.0417C53.1596 15.0417 54.3547 15.3863 55.3668 16.0754C56.4005 16.7429 57.1003 17.6797 57.4664 18.8856L57.0788 19.1117V15.4616H61.0519V31.7739H57.0788V28.0915L57.4664 28.2207C57.1003 29.4266 56.4005 30.3634 55.3668 31.031C54.3547 31.677 53.1596 32 51.7814 32ZM52.8796 28.8991C54.2147 28.8991 55.2484 28.4361 55.9805 27.5101C56.7127 26.5841 57.0788 25.2705 57.0788 23.5693C57.0788 21.825 56.7127 20.5007 55.9805 19.5962C55.2484 18.6703 54.2147 18.2073 52.8796 18.2073C51.5229 18.2073 50.4678 18.681 49.7141 19.6285C48.9604 20.576 48.5835 21.9112 48.5835 23.6339C48.5835 25.3136 48.9604 26.6164 49.7141 27.5424C50.4678 28.4468 51.5229 28.8991 52.8796 28.8991Z" fill="white" fill-opacity="0.6"/>
<path d="M64.0712 31.7739V20.0808C64.0712 19.3271 64.0497 18.5626 64.0066 17.7873C63.9851 16.9906 63.9205 16.2153 63.8128 15.4616H67.6244L68.0766 19.6608L67.6244 19.4347C67.9043 17.9919 68.5396 16.9044 69.5302 16.1723C70.5208 15.4401 71.6405 15.074 72.8895 15.074C73.2125 15.074 73.514 15.0956 73.794 15.1386C74.0739 15.1817 74.3216 15.2463 74.5369 15.3324L74.4723 19.0148C73.8047 18.7349 73.0941 18.5949 72.3404 18.5949C71.3714 18.5949 70.5746 18.7887 69.9501 19.1763C69.3471 19.5639 68.8841 20.0915 68.5611 20.7591C68.2597 21.4051 68.1089 22.1373 68.1089 22.9556V31.7739H64.0712Z" fill="white" fill-opacity="0.6"/>
<path d="M86.551 31.7739L78.7017 23.4724L86.131 15.4939H91.0409L82.6102 24.4092L82.804 22.3742L91.59 31.7739H86.551ZM75.3746 31.7739V8H79.4123V31.7739H75.3746Z" fill="white" fill-opacity="0.6"/>
<path d="M89.7856 18.498V15.4616H101.285V18.498H89.7856ZM101.285 28.4145V31.6124C100.854 31.7631 100.424 31.86 99.9928 31.9031C99.5837 31.9677 99.1422 32 98.6685 32C96.838 32 95.4168 31.4832 94.4047 30.4495C93.4141 29.4159 92.9188 27.93 92.9188 25.9919V11.4886L96.9565 10.1319V25.7981C96.9565 26.5303 97.0749 27.1117 97.3118 27.5424C97.5487 27.9515 97.8609 28.2423 98.2485 28.4145C98.6577 28.5868 99.1099 28.6729 99.6052 28.6729C99.8852 28.6729 100.154 28.6514 100.413 28.6083C100.671 28.5653 100.962 28.5007 101.285 28.4145Z" fill="white" fill-opacity="0.6"/>
<path d="M102.682 31.7739V15.4616H106.719V31.7739H102.682ZM102.488 9.5L106.978 8.0646V12.0377H102.488V9.5Z" fill="white" fill-opacity="0.6"/>
<path d="M117.124 32C115.422 32 113.947 31.6662 112.698 30.9987C111.471 30.3096 110.523 29.3405 109.856 28.0915C109.21 26.821 108.887 25.3351 108.887 23.6339C108.887 21.9112 109.231 20.4038 109.92 19.1117C110.609 17.8197 111.589 16.8183 112.86 16.1077C114.13 15.397 115.616 15.0417 117.317 15.0417C118.459 15.0417 119.568 15.2248 120.644 15.5908C121.743 15.9569 122.636 16.463 123.325 17.109L122.163 19.9515C121.473 19.3917 120.741 18.9717 119.966 18.6918C119.191 18.3903 118.416 18.2396 117.64 18.2396C116.219 18.2396 115.089 18.6918 114.249 19.5962C113.43 20.5007 113.021 21.825 113.021 23.5693C113.021 25.2921 113.43 26.6057 114.249 27.5101C115.067 28.4145 116.208 28.8668 117.673 28.8668C118.426 28.8668 119.191 28.7268 119.966 28.4468C120.741 28.1454 121.473 27.7039 122.163 27.1225L123.325 29.965C122.615 30.611 121.7 31.1171 120.58 31.4832C119.482 31.8277 118.329 32 117.124 32Z" fill="white" fill-opacity="0.6"/>
<path d="M132.087 32C130.386 32 128.911 31.6555 127.662 30.9664C126.434 30.2773 125.487 29.3082 124.819 28.0592C124.151 26.7887 123.818 25.2813 123.818 23.537C123.818 21.8143 124.151 20.3176 124.819 19.0471C125.487 17.755 126.434 16.7645 127.662 16.0754C128.911 15.3863 130.386 15.0417 132.087 15.0417C133.745 15.0417 135.188 15.3863 136.415 16.0754C137.664 16.7645 138.623 17.755 139.29 19.0471C139.979 20.3176 140.324 21.8143 140.324 23.537C140.324 25.2813 139.979 26.7887 139.29 28.0592C138.623 29.3082 137.664 30.2773 136.415 30.9664C135.188 31.6555 133.745 32 132.087 32ZM132.087 28.8991C133.422 28.8991 134.445 28.4576 135.156 27.5747C135.888 26.6703 136.254 25.3244 136.254 23.537C136.254 21.7712 135.888 20.4468 135.156 19.5639C134.445 18.6595 133.422 18.2073 132.087 18.2073C130.73 18.2073 129.675 18.6595 128.921 19.5639C128.189 20.4468 127.823 21.7712 127.823 23.537C127.823 25.3244 128.189 26.6703 128.921 27.5747C129.653 28.4576 130.709 28.8991 132.087 28.8991Z" fill="white" fill-opacity="0.6"/>
</svg>
