<svg width="151" height="48" viewBox="0 0 151 48" fill="none" xmlns="http://www.w3.org/2000/svg">
<g filter="url(#filter0_d_1_2876)">
<path d="M32.5403 6H10.0939L10.0688 6.13459C10.0095 6.132 9.94996 6.13065 9.89007 6.13065C7.73734 6.13065 5.99219 7.8758 5.99219 10.0285C5.99219 11.5248 6.83513 12.824 8.07205 13.4774L31.2166 19.3039H41.4497L32.5403 6Z" fill="white" fill-opacity="0.6"/>
<path d="M33.1048 21.9306L20.6378 20.6961H18.7997H8.21955L17.129 34H39.5753L39.6005 33.8654C39.6598 33.868 39.7193 33.8694 39.7792 33.8694C41.9319 33.8694 43.6771 32.1242 43.6771 29.9715C43.6771 28.2103 42.5091 26.7219 40.9054 26.2388L33.1048 21.9306Z" fill="white" fill-opacity="0.6"/>
<path d="M52.8347 27.9709C52.8347 31.5588 55.7198 34 60.2693 34C64.7819 34 67.9259 31.7067 67.9259 28.0079C67.9259 25.1968 66.3724 23.7913 63.3024 23.0885L60.0104 22.3118C58.4569 21.9419 57.6432 21.2761 57.6432 20.2404C57.6432 18.8719 58.6788 18.0581 60.4543 18.0581C62.1927 18.0581 63.2284 19.0568 63.2654 20.6103H67.556C67.519 17.0594 64.7449 14.6922 60.6392 14.6922C56.4226 14.6922 53.3895 16.8375 53.3895 20.4254C53.3895 23.3474 54.98 24.9009 58.272 25.6407L61.5639 26.4174C63.1914 26.7873 63.6722 27.4531 63.6722 28.3778C63.6722 29.7094 62.5256 30.5601 60.4173 30.5601C58.3459 30.5601 57.1623 29.5614 57.1253 27.9709H52.8347Z" fill="white" fill-opacity="0.6"/>
<path d="M77.2243 34C81.9958 34 85.3247 31.5958 86.1015 27.6011H81.9218C81.404 29.3395 79.7765 30.3012 77.2983 30.3012C74.3023 30.3012 72.6008 28.6737 72.2679 25.4557L86.0275 25.4188V24.0502C86.0275 18.354 82.5506 14.6922 77.0764 14.6922C71.7131 14.6922 67.9773 18.6499 67.9773 24.3831C67.9773 30.0423 71.7871 34 77.2243 34ZM77.1134 18.391C79.8135 18.391 81.5519 20.0555 81.5519 22.5707H72.3789C72.8227 19.8336 74.4502 18.391 77.1134 18.391Z" fill="white" fill-opacity="0.6"/>
<path d="M91.8768 33.5192V6H87.4013V33.5192H91.8768Z" fill="white" fill-opacity="0.6"/>
<path d="M92.4863 15.247V19.0198H95.1124V33.5192H99.588V19.0198H103.953V15.247H99.588V13.0277C99.588 11.2153 100.143 10.0317 102.436 10.0317H104.027V6.18494C103.25 6.03699 102.399 6 101.696 6C97.7386 6 95.1124 8.07133 95.1124 13.0277V15.247H92.4863Z" fill="white" fill-opacity="0.6"/>
<path d="M109.489 34C112.337 34 114.815 32.7054 115.592 30.819L115.925 33.5192H119.882V22.4227C119.882 17.3554 116.849 14.6922 111.93 14.6922C106.973 14.6922 103.719 17.2814 103.719 21.2391H107.565C107.565 19.3157 109.045 18.2061 111.708 18.2061C114.001 18.2061 115.481 19.2048 115.481 21.683V22.0898L110.006 22.4967C105.679 22.8296 103.238 24.9379 103.238 28.3038C103.238 31.7437 105.605 34 109.489 34ZM110.968 30.5971C108.934 30.5971 107.824 29.7834 107.824 28.1189C107.824 26.6394 108.897 25.7147 111.708 25.4557L115.518 25.1598V26.1215C115.518 28.9326 113.742 30.5971 110.968 30.5971Z" fill="white" fill-opacity="0.6"/>
<path d="M120.598 27.9709C120.598 31.5588 123.483 34 128.033 34C132.545 34 135.689 31.7067 135.689 28.0079C135.689 25.1968 134.136 23.7913 131.066 23.0885L127.774 22.3118C126.22 21.9419 125.407 21.2761 125.407 20.2404C125.407 18.8719 126.442 18.0581 128.218 18.0581C129.956 18.0581 130.992 19.0568 131.029 20.6103H135.319C135.282 17.0594 132.508 14.6922 128.403 14.6922C124.186 14.6922 121.153 16.8375 121.153 20.4254C121.153 23.3474 122.743 24.9009 126.035 25.6407L129.327 26.4174C130.955 26.7873 131.436 27.4531 131.436 28.3778C131.436 29.7094 130.289 30.5601 128.181 30.5601C126.109 30.5601 124.926 29.5614 124.889 27.9709H120.598Z" fill="white" fill-opacity="0.6"/>
<path d="M143.027 33.5192V19.0198H146.578V15.247H143.027V9.55086H138.515V15.247H135.001V19.0198H138.515V33.5192H143.027Z" fill="white" fill-opacity="0.6"/>
</g>
<defs>
<filter id="filter0_d_1_2876" x="0.834717" y="0" width="149.743" height="48" filterUnits="userSpaceOnUse" color-interpolation-filters="sRGB">
<feFlood flood-opacity="0" result="BackgroundImageFix"/>
<feColorMatrix in="SourceAlpha" type="matrix" values="0 0 0 0 0 0 0 0 0 0 0 0 0 0 0 0 0 0 127 0" result="hardAlpha"/>
<feOffset dy="4"/>
<feGaussianBlur stdDeviation="2"/>
<feComposite in2="hardAlpha" operator="out"/>
<feColorMatrix type="matrix" values="0 0 0 0 0 0 0 0 0 0 0 0 0 0 0 0 0 0 0.25 0"/>
<feBlend mode="normal" in2="BackgroundImageFix" result="effect1_dropShadow_1_2876"/>
<feBlend mode="normal" in="SourceGraphic" in2="effect1_dropShadow_1_2876" result="shape"/>
</filter>
</defs>
</svg>
