<svg width="195" height="40" viewBox="0 0 195 40" fill="none" xmlns="http://www.w3.org/2000/svg">
<path fill-rule="evenodd" clip-rule="evenodd" d="M32.168 13.3333V26.6667C32.168 32.9259 27.0939 38 20.8347 38C19.82 38 18.8365 37.8667 17.9006 37.6165L17.1117 39.4733C18.2933 39.8162 19.5425 40 20.8347 40C28.1985 40 34.168 34.0305 34.168 26.6667V13.3333C34.168 5.96954 28.1985 0 20.8347 0C13.4709 0 7.50137 5.96954 7.50137 13.3333V26.6667C7.50137 31.5826 10.1618 35.8772 14.1214 38.1891L14.6744 36.1812C14.5771 36.118 14.4808 36.0535 14.3856 35.9875C14.4702 36.0461 14.5556 36.1035 14.6417 36.1599L20.4043 15.66H24.0501L24.2421 15.02H20.5842L20.8181 14.188C21.2021 12.7373 21.5648 11.4253 21.9061 10.252C22.2475 9.05735 22.6741 8.22535 23.1861 7.75601C23.4208 7.54268 23.6768 7.36135 23.9541 7.21201C24.2528 7.06268 24.5941 6.98801 24.9781 6.98801C25.3621 6.98801 25.6715 7.06268 25.9061 7.21201C26.1621 7.34001 26.3008 7.47868 26.3221 7.62801C25.7248 7.82001 25.2341 8.14001 24.8501 8.58801C24.4875 9.01468 24.3061 9.52668 24.3061 10.124C24.2848 10.5293 24.4128 10.8493 24.6901 11.084C24.9675 11.2973 25.3515 11.404 25.8421 11.404C26.5461 11.404 27.1221 11.148 27.5701 10.636C28.0181 10.124 28.2421 9.58001 28.2421 9.00401C28.2421 8.27868 27.9435 7.68135 27.3461 7.21201C26.7488 6.72135 25.9061 6.47601 24.8181 6.47601C24.0288 6.47601 23.2608 6.61468 22.5141 6.89201C21.7888 7.16935 21.1595 7.55335 20.6261 8.04401C19.8795 8.72668 19.2288 9.64401 18.6741 10.796C18.1474 11.9127 17.6623 13.3207 17.2188 15.02H14.4181L14.2261 15.66H17.0402L11.9644 33.7216C11.9645 33.7216 11.9645 33.7217 11.9645 33.7217C10.4227 31.7858 9.50137 29.3338 9.50137 26.6667V13.3333C9.50137 7.07411 14.5755 2 20.8347 2C27.0939 2 32.168 7.07411 32.168 13.3333Z" fill="white" fill-opacity="0.6"/>
<path d="M47.3915 31.5V8.22727H61.8234V11.25H50.9029V18.3409H60.7893V21.3523H50.9029V31.5H47.3915ZM68.8859 31.8864C67.7798 31.8864 66.7798 31.6818 65.8859 31.2727C64.9919 30.8561 64.2836 30.2538 63.7609 29.4659C63.2457 28.678 62.9881 27.7121 62.9881 26.5682C62.9881 25.5833 63.1775 24.7727 63.5563 24.1364C63.9351 23.5 64.4465 22.9962 65.0904 22.625C65.7343 22.2538 66.454 21.9735 67.2495 21.7841C68.0449 21.5947 68.8556 21.4508 69.6813 21.3523C70.7268 21.2311 71.5752 21.1326 72.2268 21.0568C72.8783 20.9735 73.3518 20.8409 73.6472 20.6591C73.9427 20.4773 74.0904 20.1818 74.0904 19.7727V19.6932C74.0904 18.7008 73.8101 17.9318 73.2495 17.3864C72.6965 16.8409 71.8707 16.5682 70.7722 16.5682C69.6283 16.5682 68.7268 16.822 68.0677 17.3295C67.4162 17.8295 66.9654 18.3864 66.7154 19L63.5222 18.2727C63.901 17.2121 64.454 16.3561 65.1813 15.7045C65.9162 15.0455 66.7609 14.5682 67.7154 14.2727C68.6699 13.9697 69.6737 13.8182 70.7268 13.8182C71.4237 13.8182 72.1624 13.9015 72.9427 14.0682C73.7306 14.2273 74.4654 14.5227 75.1472 14.9545C75.8366 15.3864 76.401 16.0038 76.8404 16.8068C77.2798 17.6023 77.4995 18.6364 77.4995 19.9091V31.5H74.1813V29.1136H74.0449C73.8252 29.553 73.4957 29.9848 73.0563 30.4091C72.6169 30.8333 72.0525 31.1856 71.3631 31.4659C70.6737 31.7462 69.848 31.8864 68.8859 31.8864ZM69.6245 29.1591C70.5639 29.1591 71.3669 28.9735 72.0336 28.6023C72.7078 28.2311 73.2192 27.7462 73.5677 27.1477C73.9237 26.5417 74.1018 25.8939 74.1018 25.2045V22.9545C73.9806 23.0758 73.7457 23.1894 73.3972 23.2955C73.0563 23.3939 72.6662 23.4811 72.2268 23.5568C71.7874 23.625 71.3593 23.6894 70.9427 23.75C70.526 23.803 70.1775 23.8485 69.8972 23.8864C69.2381 23.9697 68.6359 24.1098 68.0904 24.3068C67.5525 24.5038 67.1207 24.7879 66.7949 25.1591C66.4768 25.5227 66.3177 26.0076 66.3177 26.6136C66.3177 27.4545 66.6283 28.0909 67.2495 28.5227C67.8707 28.947 68.6624 29.1591 69.6245 29.1591ZM83.4228 21.1364V31.5H80.0251V14.0455H83.2864V16.8864H83.5023C83.9038 15.9621 84.5326 15.2197 85.3887 14.6591C86.2523 14.0985 87.3395 13.8182 88.6501 13.8182C89.8395 13.8182 90.8811 14.0682 91.7751 14.5682C92.669 15.0606 93.3622 15.7955 93.8546 16.7727C94.347 17.75 94.5932 18.9583 94.5932 20.3977V31.5H91.1955V20.8068C91.1955 19.5417 90.866 18.553 90.2069 17.8409C89.5478 17.1212 88.6425 16.7614 87.491 16.7614C86.7031 16.7614 86.0023 16.9318 85.3887 17.2727C84.7826 17.6136 84.3016 18.1136 83.9455 18.7727C83.597 19.4242 83.4228 20.2121 83.4228 21.1364ZM104.502 31.8523C102.813 31.8523 101.358 31.4697 100.139 30.7045C98.9266 29.9318 97.9948 28.8674 97.3432 27.5114C96.6917 26.1553 96.366 24.6023 96.366 22.8523C96.366 21.0795 96.6993 19.5152 97.366 18.1591C98.0326 16.7955 98.972 15.7311 100.184 14.9659C101.396 14.2008 102.824 13.8182 104.468 13.8182C105.794 13.8182 106.976 14.0644 108.014 14.5568C109.052 15.0417 109.889 15.7235 110.525 16.6023C111.169 17.4811 111.552 18.5076 111.673 19.6818H108.366C108.184 18.8636 107.767 18.1591 107.116 17.5682C106.472 16.9773 105.608 16.6818 104.525 16.6818C103.578 16.6818 102.749 16.9318 102.036 17.4318C101.332 17.9242 100.783 18.6288 100.389 19.5455C99.9948 20.4545 99.7978 21.5303 99.7978 22.7727C99.7978 24.0455 99.991 25.1439 100.377 26.0682C100.764 26.9924 101.309 27.7083 102.014 28.2159C102.726 28.7235 103.563 28.9773 104.525 28.9773C105.169 28.9773 105.752 28.8598 106.275 28.625C106.805 28.3826 107.249 28.0379 107.605 27.5909C107.968 27.1439 108.222 26.6061 108.366 25.9773H111.673C111.552 27.1061 111.184 28.1136 110.571 29C109.957 29.8864 109.135 30.5833 108.105 31.0909C107.082 31.5985 105.881 31.8523 104.502 31.8523ZM115.454 38.0455C114.946 38.0455 114.484 38.0038 114.068 37.9205C113.651 37.8447 113.34 37.7614 113.136 37.6705L113.954 34.8864C114.575 35.053 115.128 35.125 115.613 35.1023C116.098 35.0795 116.526 34.8977 116.897 34.5568C117.276 34.2159 117.609 33.6591 117.897 32.8864L118.318 31.7273L111.931 14.0455H115.568L119.988 27.5909H120.17L124.59 14.0455H128.238L121.045 33.8295C120.712 34.7386 120.287 35.5076 119.772 36.1364C119.257 36.7727 118.643 37.25 117.931 37.5682C117.219 37.8864 116.393 38.0455 115.454 38.0455ZM132.238 31.5L129.874 14.0455H131.999L133.738 28.4432H133.886L140.409 14.0455H142.556L144.249 28.4091H144.409L150.931 14.0455H153.09L144.909 31.5H142.818L141.045 17.2159H140.829L134.329 31.5H132.238ZM158.531 31.8636C156.902 31.8636 155.557 31.4848 154.497 30.7273C153.436 29.9621 152.694 28.9053 152.269 27.5568C151.845 26.2008 151.781 24.6402 152.076 22.875C152.372 21.1174 152.955 19.5568 153.826 18.1932C154.697 16.822 155.773 15.75 157.053 14.9773C158.334 14.197 159.724 13.8068 161.224 13.8068C162.171 13.8068 163.057 13.9811 163.883 14.3295C164.709 14.6705 165.41 15.197 165.985 15.9091C166.569 16.6136 166.974 17.5038 167.201 18.5795C167.428 19.6477 167.421 20.9129 167.178 22.375L167.019 23.375H153.383L153.667 21.5909H165.247C165.436 20.4697 165.383 19.4621 165.088 18.5682C164.792 17.6742 164.288 16.9659 163.576 16.4432C162.872 15.9129 161.997 15.6477 160.951 15.6477C159.883 15.6477 158.872 15.947 157.917 16.5455C156.97 17.1439 156.167 17.9242 155.508 18.8864C154.856 19.8409 154.436 20.8598 154.247 21.9432L154.019 23.2841C153.777 24.7614 153.807 26 154.11 27C154.413 27.9924 154.963 28.7424 155.758 29.25C156.553 29.7576 157.572 30.0114 158.815 30.0114C159.648 30.0114 160.402 29.8826 161.076 29.625C161.75 29.3674 162.338 29.0227 162.838 28.5909C163.338 28.1515 163.739 27.6705 164.042 27.1477L165.849 27.7727C165.463 28.5076 164.917 29.1856 164.213 29.8068C163.516 30.428 162.686 30.928 161.724 31.3068C160.769 31.678 159.705 31.8636 158.531 31.8636ZM172.943 31.8977C171.89 31.8977 170.962 31.6932 170.159 31.2841C169.356 30.8674 168.757 30.2689 168.363 29.4886C167.977 28.7008 167.871 27.7462 168.045 26.625C168.196 25.7614 168.484 25.0341 168.909 24.4432C169.34 23.8523 169.886 23.3674 170.545 22.9886C171.204 22.6023 171.962 22.2992 172.818 22.0795C173.674 21.8598 174.606 21.6932 175.613 21.5795C176.598 21.4583 177.439 21.3523 178.136 21.2614C178.833 21.1705 179.374 21.0265 179.761 20.8295C180.147 20.6326 180.378 20.3144 180.454 19.875L180.522 19.4659C180.719 18.2765 180.537 17.3409 179.977 16.6591C179.416 15.9697 178.477 15.625 177.159 15.625C175.901 15.625 174.81 15.9053 173.886 16.4659C172.969 17.0189 172.287 17.6667 171.84 18.4091L170.045 17.7159C170.59 16.7614 171.261 16 172.056 15.4318C172.852 14.8561 173.704 14.4432 174.613 14.1932C175.522 13.9356 176.42 13.8068 177.306 13.8068C177.973 13.8068 178.651 13.8939 179.34 14.0682C180.03 14.2424 180.647 14.5455 181.193 14.9773C181.746 15.4015 182.151 15.9962 182.409 16.7614C182.674 17.5189 182.712 18.4811 182.522 19.6477L180.545 31.5H178.522L178.988 28.7386H178.863C178.545 29.2538 178.106 29.7538 177.545 30.2386C176.992 30.7235 176.329 31.1212 175.556 31.4318C174.784 31.7424 173.912 31.8977 172.943 31.8977ZM173.454 30.0455C174.53 30.0455 175.503 29.8068 176.374 29.3295C177.253 28.8523 177.973 28.2197 178.534 27.4318C179.102 26.6364 179.465 25.7614 179.624 24.8068L180.045 22.2841C179.878 22.428 179.606 22.5568 179.227 22.6705C178.856 22.7841 178.435 22.8864 177.965 22.9773C177.503 23.0606 177.037 23.1326 176.568 23.1932C176.106 23.2538 175.696 23.3068 175.34 23.3523C174.333 23.4735 173.454 23.6629 172.704 23.9205C171.962 24.178 171.367 24.5341 170.92 24.9886C170.473 25.4356 170.193 26.0114 170.079 26.7159C169.905 27.7765 170.136 28.5985 170.772 29.1818C171.416 29.7576 172.31 30.0455 173.454 30.0455ZM183.926 31.5L186.835 14.0455H188.801L188.346 16.7273H188.494C188.979 15.8485 189.702 15.1402 190.664 14.6023C191.634 14.0568 192.668 13.7841 193.767 13.7841C193.933 13.7841 194.119 13.7879 194.323 13.7955C194.528 13.7955 194.698 13.803 194.835 13.8182L194.482 15.875C194.392 15.8598 194.232 15.8371 194.005 15.8068C193.785 15.7765 193.539 15.7614 193.267 15.7614C192.357 15.7614 191.517 15.9545 190.744 16.3409C189.979 16.7197 189.335 17.2462 188.812 17.9205C188.297 18.5947 187.964 19.3636 187.812 20.2273L185.948 31.5H183.926Z" fill="white" fill-opacity="0.6"/>
</svg>
