<svg width="162" height="40" viewBox="0 0 162 40" fill="none" xmlns="http://www.w3.org/2000/svg">
<path fill-rule="evenodd" clip-rule="evenodd" d="M20.2124 7L36.9817 15.2764V33H24.4085V29.2918H33.2735V17.5815L20.2242 11.1411L7.374 17.5742V25.5835H3.6658V15.2837L20.2124 7ZM20.2183 15.3862L28.1167 19.3354V25.5835H24.4085V21.6272L20.2183 19.5321L16.028 21.6272V33H3.6658V29.2918H12.3198V19.3354L20.2183 15.3862Z" fill="white" fill-opacity="0.6"/>
<path d="M58.6811 26.3263H52.4747V24.515H54.4192V19.374C54.4192 18.1665 54.1794 17.3141 53.7 16.8169C53.2205 16.3019 52.5901 16.0444 51.8087 16.0444C50.8498 16.0444 50.0773 16.3729 49.4913 17.03C48.9053 17.6693 48.5945 18.4062 48.559 19.2408V24.515H50.5035V26.3263H44.3237V24.515H46.2416V9.83796H44.3237V8H48.559V16.4706C49.4292 14.9434 50.7877 14.1798 52.6345 14.1798C53.7888 14.1798 54.7655 14.535 55.5646 15.2453C56.3637 15.9556 56.7632 17.0655 56.7632 18.5749V24.515H58.6811V26.3263Z" fill="white" fill-opacity="0.6"/>
<path d="M70.7408 20.3862C70.7408 22.2153 70.1725 23.707 69.036 24.8613C67.9172 26.0155 66.4344 26.5927 64.5876 26.5927C62.7763 26.5927 61.3379 26.0333 60.2724 24.9145C59.2247 23.7958 58.7008 22.3219 58.7008 20.4928C58.7008 18.7525 59.2069 17.2608 60.2191 16.0178C61.2313 14.7747 62.7408 14.1532 64.7474 14.1532C66.7541 14.1532 68.2546 14.7747 69.2491 16.0178C70.2435 17.2431 70.7408 18.6992 70.7408 20.3862ZM68.2902 20.3063C68.2902 18.9922 67.9616 17.9534 67.3046 17.1898C66.6653 16.4262 65.7951 16.0444 64.6941 16.0444C63.5399 16.0444 62.652 16.4528 62.0304 17.2697C61.4267 18.0688 61.1248 19.0988 61.1248 20.3596C61.1248 21.5671 61.4178 22.5971 62.0038 23.4495C62.6076 24.2841 63.4955 24.7014 64.6675 24.7014C65.8218 24.7014 66.7097 24.293 67.3312 23.4761C67.9705 22.6415 68.2902 21.5849 68.2902 20.3063Z" fill="white" fill-opacity="0.6"/>
<path d="M93.3013 26.3263H87.814V24.515H89.0393V19.374C89.0393 18.1665 88.8085 17.3141 88.3468 16.8169C87.9028 16.3019 87.299 16.0444 86.5354 16.0444C85.5055 16.0444 84.733 16.4173 84.218 17.1632C83.7208 17.909 83.4633 18.6637 83.4455 19.4273V24.515H85.3634V26.3263H79.8762V24.515H81.1015V19.374C81.1015 18.1487 80.8706 17.2875 80.4089 16.7902C79.965 16.293 79.3701 16.0444 78.6242 16.0444C77.612 16.0444 76.8484 16.4084 76.3334 17.1365C75.8185 17.8646 75.5521 18.6104 75.5343 19.374V24.515H77.7452V26.3263H71.2724V24.515H73.1903V16.2575H71.2458V14.4195H75.5343V16.5239C75.9072 15.8313 76.4133 15.2719 77.0526 14.8457C77.6919 14.4018 78.4733 14.1798 79.3967 14.1798C80.3024 14.1798 81.1015 14.4107 81.794 14.8724C82.4866 15.3163 82.9661 16.0089 83.2324 16.9501C83.5876 16.1332 84.1115 15.4673 84.804 14.9523C85.4966 14.4373 86.3401 14.1798 87.3345 14.1798C88.4533 14.1798 89.4034 14.535 90.1847 15.2453C90.9661 15.9556 91.3567 17.0655 91.3567 18.5749V24.515H93.3013V26.3263Z" fill="white" fill-opacity="0.6"/>
<path d="M104.237 22.8102C104.113 23.8402 103.607 24.7281 102.719 25.4739C101.831 26.2198 100.623 26.5927 99.096 26.5927C97.3735 26.5927 95.9795 26.0777 94.914 25.0477C93.8485 24.0178 93.3157 22.5261 93.3157 20.5727C93.3157 18.7259 93.813 17.1987 94.8074 15.9911C95.8019 14.7836 97.1781 14.1798 98.9362 14.1798C100.57 14.1798 101.84 14.6859 102.745 15.6981C103.651 16.7103 104.113 17.9356 104.13 19.374C104.13 19.8535 104.077 20.3596 103.971 20.8923H95.7664C95.8729 23.414 97.0361 24.6748 99.2558 24.6748C100.179 24.6748 100.872 24.4528 101.334 24.0089C101.813 23.5649 102.133 23.0322 102.292 22.4107L104.237 22.8102ZM101.706 19.3208C101.777 18.5394 101.582 17.7936 101.12 17.0832C100.676 16.3552 99.9306 15.9911 98.8829 15.9911C97.9062 15.9911 97.1692 16.3196 96.672 16.9767C96.1926 17.616 95.8995 18.3973 95.793 19.3208H101.706Z" fill="white" fill-opacity="0.6"/>
<path d="M105.914 13.3008C106.678 12.9279 107.504 12.6526 108.391 12.475C109.279 12.2797 110.096 12.182 110.842 12.182C112.689 12.182 113.994 12.626 114.758 13.5139C115.521 14.384 115.903 15.3074 115.903 16.2841C115.903 17.4917 115.468 18.5838 114.598 19.5605C113.728 20.5372 112.68 21.4162 111.455 22.1976C110.247 22.9612 109.128 23.636 108.098 24.222H114.678L114.891 22.2775L116.862 22.4373L116.542 26.3263H105.355L105.142 24.4351C107.539 22.8368 109.501 21.4517 111.028 20.2797C112.556 19.0899 113.319 17.8646 113.319 16.6038C113.319 15.0411 112.343 14.2597 110.389 14.2597C110.034 14.2597 109.608 14.313 109.111 14.4195C108.613 14.5083 108.161 14.6415 107.752 14.8191L107.326 16.7902L105.435 16.5771L105.914 13.3008Z" fill="white" fill-opacity="0.6"/>
<path d="M127.619 22.8368C127.619 24.0266 127.121 24.9501 126.127 25.6071C125.15 26.2642 123.907 26.5927 122.398 26.5927C120.569 26.5927 119.015 26.202 117.736 25.4206L118.109 22.5438L119.947 22.7303L119.894 24.2753C120.249 24.4528 120.631 24.5771 121.039 24.6482C121.465 24.7192 121.883 24.7547 122.291 24.7547C123.055 24.7547 123.738 24.6127 124.342 24.3285C124.964 24.0444 125.274 23.6004 125.274 22.9967C125.274 22.4107 125.026 22.0022 124.529 21.7714C124.031 21.5228 123.41 21.3363 122.664 21.212C121.936 21.0877 121.208 20.9367 120.48 20.7592C119.752 20.5638 119.139 20.2442 118.642 19.8002C118.145 19.3385 117.896 18.6459 117.896 17.7225C117.896 16.3907 118.384 15.4673 119.361 14.9523C120.355 14.4373 121.412 14.1798 122.531 14.1798C123.348 14.1798 124.111 14.2863 124.822 14.4994C125.55 14.6948 126.207 14.9523 126.793 15.2719L127.059 18.1487L125.195 18.3618L124.928 16.4972C124.2 16.1598 123.437 15.9911 122.637 15.9911C121.98 15.9911 121.439 16.1154 121.013 16.364C120.586 16.6127 120.373 17.0211 120.373 17.5893C120.373 18.1398 120.613 18.5305 121.092 18.7614C121.59 18.9922 122.193 19.1698 122.904 19.2941C123.632 19.4007 124.351 19.5516 125.061 19.7469C125.789 19.9423 126.393 20.2708 126.873 20.7325C127.37 21.1942 127.619 21.8957 127.619 22.8368Z" fill="white" fill-opacity="0.6"/>
<path d="M137.519 22.97C137.181 25.3851 135.849 26.5927 133.523 26.5927C132.298 26.5927 131.339 26.2642 130.646 25.6071C129.972 24.9323 129.634 24 129.634 22.8102V16.2042H127.796V14.4195H129.634V10.6637H131.952V14.4195H136.507V16.2042H131.952V22.4639C131.952 23.8846 132.564 24.5949 133.79 24.5949C134.18 24.5949 134.571 24.4706 134.962 24.222C135.352 23.9556 135.627 23.3518 135.787 22.4107L137.519 22.97Z" fill="white" fill-opacity="0.6"/>
<path d="M138.511 15.3252C139.239 14.899 139.949 14.606 140.642 14.4462C141.352 14.2686 142.124 14.1798 142.959 14.1798C144.309 14.1798 145.374 14.5083 146.156 15.1654C146.955 15.8224 147.354 16.8346 147.354 18.202V23.7159C147.354 24.4972 147.665 24.8879 148.286 24.8879C148.535 24.8879 148.775 24.8435 149.006 24.7547L149.032 26.1398C148.535 26.4417 147.958 26.5927 147.301 26.5927C145.863 26.5927 145.099 25.7936 145.01 24.1953V24.1687C144.655 24.7902 144.14 25.3496 143.465 25.8468C142.808 26.3441 142 26.5927 141.041 26.5927C140.224 26.5927 139.407 26.3441 138.591 25.8468C137.791 25.3496 137.392 24.4795 137.392 23.2364C137.392 21.7447 137.978 20.768 139.15 20.3063C140.34 19.8269 141.609 19.5871 142.959 19.5871C143.776 19.5871 144.46 19.6226 145.01 19.6937V18.8147C145.01 18.0333 144.859 17.3674 144.557 16.8169C144.255 16.2664 143.581 15.9911 142.533 15.9911C141.68 15.9911 140.961 16.1421 140.375 16.444L139.922 18.3885L138.031 18.1754L138.511 15.3252ZM145.01 21.7447V21.0522C144.69 21.0166 144.353 20.99 143.998 20.9723C143.661 20.9367 143.314 20.919 142.959 20.919C142.142 20.919 141.414 21.0522 140.775 21.3185C140.136 21.5849 139.816 22.1354 139.816 22.97C139.816 23.6093 140.011 24.071 140.402 24.3552C140.81 24.6393 141.272 24.7814 141.787 24.7814C142.551 24.7814 143.261 24.515 143.918 23.9822C144.575 23.4495 144.939 22.7037 145.01 21.7447Z" fill="white" fill-opacity="0.6"/>
<path d="M161.393 16.2575H160.061L155.959 26.3263L154.494 30.1354H156.385V32H150.205V30.1354H152.31L153.695 26.3529L149.406 16.2575H148.048V14.4195H153.721V16.2575H151.91L154.973 23.5028H155.133L157.77 16.2575H156.092V14.4195H161.393V16.2575Z" fill="white" fill-opacity="0.6"/>
</svg>
