<svg width="156" height="30" viewBox="0 0 156 30" fill="none" xmlns="http://www.w3.org/2000/svg">
<path fill-rule="evenodd" clip-rule="evenodd" d="M18 2.00085H6C5.44772 2.00085 5 2.44857 5 3.00085V5.00085H19V3.00085C19 2.44857 18.5523 2.00085 18 2.00085ZM3 3.00085V5.00085H2C1.46957 5.00085 0.960859 5.21157 0.585786 5.58664C0.210714 5.96171 0 6.47042 0 7.00085V14.3471C0 25.5484 9.475 29.2646 11.375 29.8959C11.7803 30.0337 12.2197 30.0337 12.625 29.8959C14.5225 29.2646 24 25.5484 24 14.3471V7.00085C24 6.47042 23.7893 5.96171 23.4142 5.58664C23.0391 5.21157 22.5304 5.00085 22 5.00085H21V3.00085C21 1.344 19.6569 0.000854492 18 0.000854492H6C4.34315 0.000854492 3 1.344 3 3.00085ZM15 15.0009C15 16.3071 14.1652 17.4183 13 17.8301V21.0009C13 21.5531 12.5523 22.0009 12 22.0009C11.4477 22.0009 11 21.5531 11 21.0009V17.8301C9.83481 17.4183 9 16.3071 9 15.0009C9 13.344 10.3431 12.0009 12 12.0009C13.6569 12.0009 15 13.344 15 15.0009Z" fill="#6366F1"/>
<path d="M36.4415 28.3362C34.9221 28.3362 33.6315 28.0616 32.5697 27.5125C31.508 26.9633 30.556 26.1578 29.7139 25.096L31.8558 22.9542C32.3867 23.7231 33.0182 24.3272 33.7505 24.7665C34.4827 25.1876 35.4164 25.3981 36.5514 25.3981C37.6131 25.3981 38.4552 25.1784 39.0776 24.7391C39.7183 24.2997 40.0387 23.6956 40.0387 22.9267C40.0387 22.286 39.8739 21.7643 39.5444 21.3615C39.2149 20.9588 38.7756 20.6293 38.2264 20.373C37.6955 20.0984 37.1005 19.8604 36.4415 19.6591C35.8008 19.4394 35.1509 19.2014 34.4919 18.9451C33.8512 18.6705 33.2562 18.3318 32.707 17.9291C32.1761 17.5264 31.7459 17.0046 31.4164 16.3639C31.0869 15.7232 30.9222 14.9086 30.9222 13.92C30.9222 12.785 31.1968 11.824 31.7459 11.0368C32.3134 10.2313 33.0732 9.61804 34.0251 9.197C34.977 8.77595 36.0388 8.56543 37.2104 8.56543C38.4735 8.56543 39.5994 8.81256 40.5879 9.30683C41.5947 9.8011 42.4094 10.4327 43.0318 11.2015L40.8899 13.3434C40.3408 12.721 39.7641 12.2633 39.16 11.9704C38.5742 11.6592 37.8969 11.5036 37.128 11.5036C36.1761 11.5036 35.4255 11.6958 34.8763 12.0802C34.3454 12.4647 34.08 13.0047 34.08 13.7003C34.08 14.2861 34.2448 14.7621 34.5743 15.1282C34.9038 15.4761 35.334 15.7781 35.8649 16.0344C36.4141 16.2724 37.009 16.5012 37.6497 16.7209C38.3088 16.9406 38.9586 17.1877 39.5994 17.4623C40.2584 17.7369 40.8533 18.0939 41.3842 18.5332C41.9334 18.9543 42.3728 19.5034 42.7023 20.1808C43.0318 20.8581 43.1965 21.7094 43.1965 22.7345C43.1965 24.4553 42.5833 25.8191 41.3568 26.826C40.1485 27.8328 38.5101 28.3362 36.4415 28.3362ZM51.8958 28.3362C50.5778 28.3362 49.3879 28.0433 48.3261 27.4575C47.2826 26.8534 46.4497 26.0296 45.8273 24.9862C45.2232 23.9427 44.9211 22.7711 44.9211 21.4714C44.9211 20.1716 45.2232 19.0092 45.8273 17.984C46.4314 16.9406 47.246 16.1168 48.2712 15.5127C49.3146 14.9086 50.4679 14.6065 51.7311 14.6065C52.9576 14.6065 54.0377 14.8903 54.9713 15.4578C55.9232 16.0252 56.6646 16.8033 57.1955 17.7918C57.7447 18.7803 58.0193 19.9062 58.0193 21.1693C58.0193 21.389 58.001 21.6178 57.9644 21.8558C57.9461 22.0755 57.9094 22.3226 57.8545 22.5972H47.0355V20.1259H56.2893L55.1635 21.1144C55.1269 20.3089 54.9713 19.6316 54.6967 19.0824C54.4221 18.5332 54.0285 18.1122 53.5159 17.8193C53.0217 17.5264 52.4084 17.3799 51.6762 17.3799C50.9073 17.3799 50.2391 17.5447 49.6716 17.8742C49.1041 18.2037 48.6648 18.6705 48.3536 19.2746C48.0423 19.8604 47.8867 20.5652 47.8867 21.389C47.8867 22.2128 48.0515 22.9359 48.381 23.5583C48.7105 24.1807 49.1773 24.6658 49.7814 25.0136C50.3856 25.3432 51.0812 25.5079 51.8684 25.5079C52.5457 25.5079 53.1681 25.3889 53.7356 25.1509C54.3214 24.913 54.8157 24.5651 55.2184 24.1075L57.1406 26.0571C56.4999 26.8077 55.7218 27.3752 54.8065 27.7596C53.8912 28.144 52.921 28.3362 51.8958 28.3362ZM66.5092 28.3362C65.2094 28.3362 64.0287 28.0342 62.9669 27.4301C61.9235 26.826 61.0997 26.0022 60.4956 24.9587C59.8915 23.9153 59.5894 22.7528 59.5894 21.4714C59.5894 20.1716 59.8915 19.0092 60.4956 17.984C61.0997 16.9406 61.9235 16.1168 62.9669 15.5127C64.0287 14.9086 65.2094 14.6065 66.5092 14.6065C67.5343 14.6065 68.4863 14.8079 69.365 15.2106C70.262 15.5951 71.0217 16.1534 71.6441 16.8856L69.667 18.8902C69.2826 18.4325 68.8158 18.0939 68.2666 17.8742C67.7357 17.6362 67.1499 17.5172 66.5092 17.5172C65.7586 17.5172 65.0905 17.6911 64.5047 18.0389C63.9372 18.3685 63.4887 18.8261 63.1591 19.4119C62.8479 19.9977 62.6923 20.6842 62.6923 21.4714C62.6923 22.2402 62.8479 22.9267 63.1591 23.5308C63.4887 24.1166 63.9372 24.5834 64.5047 24.9313C65.0905 25.2608 65.7586 25.4255 66.5092 25.4255C67.1499 25.4255 67.7357 25.3157 68.2666 25.096C68.8158 24.858 69.2826 24.5102 69.667 24.0526L71.6441 26.0571C71.0217 26.7894 70.262 27.3569 69.365 27.7596C68.4863 28.144 67.5343 28.3362 66.5092 28.3362ZM79.2313 28.3362C78.1146 28.3362 77.1169 28.0891 76.2382 27.5948C75.3778 27.1006 74.7005 26.4232 74.2062 25.5628C73.7302 24.6841 73.4923 23.6773 73.4923 22.5423V14.8811H76.5128V22.405C76.5128 23.0457 76.6135 23.5949 76.8149 24.0526C77.0345 24.4919 77.3457 24.8306 77.7485 25.0686C78.1695 25.3065 78.6638 25.4255 79.2313 25.4255C80.11 25.4255 80.7782 25.1692 81.2358 24.6567C81.7118 24.1258 81.9498 23.3752 81.9498 22.405V14.8811H84.9703V22.5423C84.9703 23.6956 84.7232 24.7116 84.2289 25.5903C83.7529 26.4507 83.0848 27.128 82.2244 27.6223C81.364 28.0983 80.3663 28.3362 79.2313 28.3362ZM88.0074 28.0616V14.8811H91.0279V28.0616H88.0074ZM91.0279 20.73L89.9845 20.2082C89.9845 18.5424 90.3506 17.1969 91.0828 16.1717C91.8334 15.1282 92.9592 14.6065 94.4603 14.6065C95.1194 14.6065 95.7143 14.7255 96.2452 14.9635C96.7761 15.2015 97.2704 15.5859 97.728 16.1168L95.7509 18.1488C95.513 17.8925 95.2475 17.7094 94.9546 17.5996C94.6617 17.4898 94.3231 17.4348 93.9386 17.4348C93.0965 17.4348 92.4009 17.7003 91.8517 18.2312C91.3025 18.762 91.0279 19.595 91.0279 20.73ZM104.911 28.3362C103.593 28.3362 102.403 28.0433 101.341 27.4575C100.298 26.8534 99.4647 26.0296 98.8423 24.9862C98.2382 23.9427 97.9361 22.7711 97.9361 21.4714C97.9361 20.1716 98.2382 19.0092 98.8423 17.984C99.4464 16.9406 100.261 16.1168 101.286 15.5127C102.33 14.9086 103.483 14.6065 104.746 14.6065C105.973 14.6065 107.053 14.8903 107.986 15.4578C108.938 16.0252 109.68 16.8033 110.21 17.7918C110.76 18.7803 111.034 19.9062 111.034 21.1693C111.034 21.389 111.016 21.6178 110.979 21.8558C110.961 22.0755 110.924 22.3226 110.87 22.5972H100.05V20.1259H109.304L108.178 21.1144C108.142 20.3089 107.986 19.6316 107.712 19.0824C107.437 18.5332 107.044 18.1122 106.531 17.8193C106.037 17.5264 105.423 17.3799 104.691 17.3799C103.922 17.3799 103.254 17.5447 102.687 17.8742C102.119 18.2037 101.68 18.6705 101.369 19.2746C101.057 19.8604 100.902 20.5652 100.902 21.389C100.902 22.2128 101.066 22.9359 101.396 23.5583C101.726 24.1807 102.192 24.6658 102.796 25.0136C103.401 25.3432 104.096 25.5079 104.883 25.5079C105.561 25.5079 106.183 25.3889 106.751 25.1509C107.336 24.913 107.831 24.5651 108.233 24.1075L110.156 26.0571C109.515 26.8077 108.737 27.3752 107.822 27.7596C106.906 28.144 105.936 28.3362 104.911 28.3362ZM114.032 28.0616V9.00478H115.845L116.613 11.9979V28.0616H114.032ZM127.213 28.0616L115.515 12.4372L115.845 9.00478L127.57 24.6018L127.213 28.0616ZM127.213 28.0616L126.444 25.2333V9.00478H129.025V28.0616H127.213ZM139.129 28.3362C137.829 28.3362 136.658 28.0433 135.614 27.4575C134.571 26.8534 133.747 26.0388 133.143 25.0136C132.539 23.9885 132.237 22.826 132.237 21.5263C132.237 20.2449 132.53 19.0916 133.116 18.0664C133.72 17.0412 134.525 16.2358 135.532 15.65C136.557 15.0459 137.701 14.7438 138.964 14.7438C140.173 14.7438 141.234 15.0184 142.15 15.5676C143.083 16.1168 143.806 16.8765 144.319 17.8467C144.85 18.817 145.115 19.9153 145.115 21.1419C145.115 21.3249 145.106 21.5263 145.088 21.746C145.07 21.9473 145.033 22.1853 144.978 22.4599H133.967V20.4005H143.66L142.754 21.1968C142.754 20.3181 142.598 19.5767 142.287 18.9726C141.976 18.3501 141.536 17.8742 140.969 17.5447C140.401 17.1969 139.715 17.0229 138.909 17.0229C138.067 17.0229 137.326 17.206 136.685 17.5721C136.045 17.9383 135.55 18.4508 135.202 19.1099C134.855 19.7689 134.681 20.5469 134.681 21.4439C134.681 22.3592 134.864 23.1647 135.23 23.8603C135.596 24.5377 136.118 25.0686 136.795 25.453C137.472 25.8191 138.25 26.0022 139.129 26.0022C139.861 26.0022 140.53 25.874 141.134 25.6178C141.756 25.3615 142.287 24.977 142.726 24.4645L144.319 26.0846C143.697 26.8168 142.928 27.3752 142.012 27.7596C141.115 28.144 140.154 28.3362 139.129 28.3362ZM149.412 28.0616V9.55397H151.884V28.0616H149.412ZM146.2 17.2701V15.0184H155.096V17.2701H146.2Z" fill="white"/>
</svg>
